<svg width="83" height="83" viewBox="0 0 83 83" fill="none" xmlns="http://www.w3.org/2000/svg">
<g id="alert-triangle">
<path id="shaped-3" opacity="0.4" d="M55.4721 16.4899C49.7154 4.97018 33.2837 4.97016 27.527 16.4899L9.51564 52.532C4.32376 62.9214 11.8734 75.1495 23.4882 75.1495H59.5109C71.1257 75.1495 78.6753 62.9214 73.4835 52.532L55.4721 16.4899Z" fill="#EF4444"/>
<path id="shaped-2" d="M42.7947 56.5152C41.5567 55.8004 39.9736 56.2246 39.2588 57.4626C38.5441 58.7007 38.9682 60.2837 40.2063 60.9985L40.2362 61.0157C41.4742 61.7305 43.0573 61.3063 43.772 60.0683C44.4868 58.8303 44.0626 57.2472 42.8246 56.5324L42.7947 56.5152Z" fill="#EF4444"/>
<path id="shaped-1" d="M44.09 27.6949C44.09 26.2653 42.9311 25.1064 41.5015 25.1064C40.072 25.1064 38.9131 26.2653 38.9131 27.6949V48.4024C38.9131 49.8319 40.072 50.9908 41.5015 50.9908C42.9311 50.9908 44.09 49.8319 44.09 48.4024V27.6949Z" fill="#EF4444"/>
</g>
</svg>
