<svg width="21" height="21" viewBox="0 0 21 21" fill="none" xmlns="http://www.w3.org/2000/svg">
<g id="appointment-reminders">
<g id="filled">
<path d="M7.8977 2.375C8.24288 2.375 8.5227 2.65482 8.5227 3V3.20833H7.2727V3C7.2727 2.65482 7.55253 2.375 7.8977 2.375Z" fill="#525252"/>
<path fill-rule="evenodd" clip-rule="evenodd" d="M14.356 3.20833H15.3976C17.3536 3.20833 18.9392 4.79399 18.9392 6.75V10.723C18.9392 11.4512 18.8595 12.1773 18.7016 12.8882C18.6774 12.9967 18.6494 13.1035 18.6171 13.2083C18.088 14.9295 16.4926 16.125 14.6665 16.125H3.7567C3.71157 16.125 3.66691 16.1235 3.62274 16.1207C2.25366 16.0323 1.36483 14.5973 1.93304 13.3188C2.43162 12.197 2.68924 10.9831 2.68924 9.75543V6.75C2.68924 4.79399 4.2749 3.20833 6.23091 3.20833H7.2727V3.41667C7.2727 3.76184 7.55253 4.04167 7.8977 4.04167C8.24288 4.04167 8.5227 3.76184 8.5227 3.41667V3.20833H13.106V3.41667C13.106 3.76184 13.3859 4.04167 13.731 4.04167C14.0762 4.04167 14.356 3.76184 14.356 3.41667V3.20833ZM10.5355 6.08333C9.66107 6.08333 8.95219 6.79222 8.95219 7.66667C8.95219 8.54112 9.66107 9.25 10.5355 9.25C11.41 9.25 12.1189 8.54112 12.1189 7.66667C12.1189 6.79222 11.41 6.08333 10.5355 6.08333ZM9.3453 10.0833C8.90238 10.0833 8.49253 10.3177 8.26793 10.6995L7.94463 11.249C7.77065 11.5447 7.68755 11.9016 7.75981 12.2367C7.83662 12.593 8.08562 12.892 8.48991 13.0089C9.05901 13.1734 9.80736 13.25 10.5354 13.25C11.2634 13.25 12.0118 13.1734 12.5809 13.0089C12.9852 12.892 13.2342 12.593 13.311 12.2367C13.3832 11.9016 13.3001 11.5447 13.1261 11.249L12.8028 10.6995C12.5782 10.3177 12.1684 10.0833 11.7255 10.0833H9.3453Z" fill="#525252"/>
<path d="M14.356 3.20833V3C14.356 2.65482 14.0762 2.375 13.731 2.375C13.3859 2.375 13.106 2.65482 13.106 3V3.20833H14.356Z" fill="#525252"/>
<path d="M3.68316 17.3742C3.53582 17.371 3.44113 17.5385 3.54234 17.6456C4.11206 18.2487 4.91927 18.625 5.81437 18.625H15.3977C17.1065 18.625 18.5326 17.4148 18.8658 15.8048C18.899 15.6446 18.6991 15.5624 18.5869 15.6814C17.5958 16.7336 16.1932 17.375 14.6667 17.375H3.75689C3.73223 17.375 3.70765 17.3747 3.68316 17.3742Z" fill="#525252"/>
</g>
</g>
</svg>
