<svg width="361" height="139" viewBox="0 0 361 139" fill="none" xmlns="http://www.w3.org/2000/svg">
<g clip-path="url(#clip0_13074_23072)">
<path d="M0 24C0 10.7452 10.7452 0 24 0H337C350.255 0 361 10.7452 361 24V114.408C361 127.663 350.255 138.408 337 138.408H24C10.7452 138.408 0 127.663 0 114.408V24Z" fill="#FEF3C7"/>
<circle cx="180.5" cy="69.2043" r="60.8997" fill="#FFFBEB"/>
<path d="M275.992 109.768H342.59C342.418 109.152 342.215 108.551 341.954 107.979C340.867 105.583 338.636 103.668 336.336 104.069C334.111 104.462 331.995 106.874 329.942 105.805C328.073 104.84 327.901 101.753 326.433 100.091C324.685 98.1098 321.819 98.7925 319.511 99.7201C317.211 100.648 314.509 101.65 312.482 100.061C310.13 98.2211 310.276 94.2065 309.151 91.1713C307.766 87.4238 304.067 85.1382 300.596 85.6206C297.126 86.1029 294.075 89.1603 292.899 93.0043C291.939 96.1581 291.526 100.492 288.723 101.167C286.81 101.627 285.075 99.8982 283.219 99.2007C280.556 98.1988 277.372 99.594 275.929 102.392C274.791 104.603 274.829 107.512 275.878 109.76C275.916 109.76 275.948 109.76 275.986 109.76L275.992 109.768Z" fill="white"/>
<path d="M111.189 38.698C109.874 35.6555 106.994 33.4515 104.052 33.778C102.927 33.9041 101.738 34.3271 100.696 33.8151C98.2868 32.6352 99.0622 28.1753 97.3842 25.8377C94.5558 21.9047 88.5177 27.2848 84.7868 24.5613C82.4478 22.8546 81.8567 18.4317 79.1554 17.801C75.8503 17.0292 73.9181 22.7729 70.5749 23.2998C68.6236 23.6115 66.7995 21.9789 65.7126 20.0643C64.6258 18.1498 64.0219 15.9087 62.9732 13.9644C60.5516 9.47483 55.6512 7.01112 51.1957 8.05745C46.7402 9.09637 43.0283 13.5785 42.2783 18.8102C41.9096 21.3778 41.9923 24.4946 40.13 25.9268C39.4563 26.4462 38.6427 26.6243 37.88 26.936C33.9965 28.5241 32.1342 34.3049 33.4626 38.7054H111.189V38.698Z" fill="white"/>
<path d="M116.036 167.588C115.966 167.588 115.89 167.558 115.826 167.506C113.685 165.54 111.587 163.432 109.591 161.228C109.458 161.08 109.451 160.828 109.579 160.672C109.706 160.516 109.922 160.508 110.055 160.657C112.038 162.839 114.117 164.939 116.24 166.89C116.386 167.024 116.411 167.276 116.297 167.447C116.233 167.543 116.132 167.595 116.03 167.595L116.036 167.588ZM104.125 154.453C104.03 154.453 103.941 154.409 103.871 154.32C102.06 151.93 100.318 149.414 98.6972 146.847C98.5892 146.669 98.621 146.424 98.7672 146.298C98.9197 146.171 99.1294 146.209 99.2375 146.379C100.852 148.932 102.581 151.425 104.373 153.8C104.494 153.963 104.481 154.216 104.341 154.357C104.278 154.423 104.195 154.453 104.119 154.453H104.125ZM94.3943 139.062C94.2799 139.062 94.1718 138.996 94.1083 138.869C92.6845 136.139 91.3498 133.311 90.1422 130.447C90.0595 130.254 90.1295 130.016 90.2947 129.92C90.46 129.823 90.6633 129.905 90.746 130.098C91.9472 132.933 93.2693 135.745 94.6866 138.454C94.782 138.639 94.7311 138.884 94.5722 138.996C94.515 139.033 94.4578 139.055 94.3943 139.055V139.062ZM87.1485 121.898C87.015 121.898 86.8816 121.802 86.8307 121.646C86.3794 120.288 85.9536 118.9 85.5595 117.535C85.0828 115.895 84.6379 114.21 84.2311 112.533C84.1803 112.325 84.282 112.103 84.4663 112.043C84.6443 111.984 84.835 112.103 84.8858 112.318C85.2926 113.987 85.7375 115.657 86.2078 117.282C86.6019 118.64 87.0278 120.013 87.4727 121.364C87.5426 121.564 87.4536 121.794 87.2756 121.876C87.2375 121.891 87.193 121.905 87.1549 121.905L87.1485 121.898ZM82.6739 103.494C82.515 103.494 82.3752 103.361 82.3434 103.175C81.8413 100.044 81.4472 96.8453 81.1739 93.6618C81.1549 93.4466 81.2883 93.2537 81.479 93.2314C81.6633 93.2166 81.8286 93.365 81.8477 93.5876C82.1146 96.7489 82.5023 99.925 83.0044 103.034C83.0362 103.249 82.9155 103.457 82.7375 103.494C82.7184 103.494 82.693 103.494 82.6739 103.494ZM81.0595 84.4526C80.8752 84.4526 80.7227 84.2819 80.7227 84.0593C80.7227 83.6214 80.7163 83.1836 80.7163 82.7458C80.7163 79.9927 80.8053 77.2024 80.9833 74.4493C80.996 74.2341 81.1549 74.0634 81.3455 74.0857C81.5299 74.1005 81.6697 74.2935 81.657 74.5087C81.4854 77.2395 81.3964 80.0075 81.3964 82.7458C81.3964 83.1836 81.3964 83.614 81.4028 84.0444C81.4028 84.2596 81.2566 84.4452 81.0659 84.4452L81.0595 84.4526ZM82.2862 65.3737C82.2862 65.3737 82.2481 65.3737 82.229 65.3737C82.0447 65.3366 81.9176 65.1362 81.9494 64.921C82.3879 61.7597 82.9536 58.591 83.6273 55.5114C83.6718 55.2962 83.8561 55.1701 84.0405 55.2294C84.2184 55.2814 84.3328 55.4966 84.282 55.7118C83.6146 58.7691 83.0553 61.9156 82.6167 65.0546C82.5913 65.2475 82.4451 65.3885 82.2862 65.3885V65.3737ZM175.566 55.8676C175.426 55.8676 175.293 55.7637 175.248 55.6005C174.371 52.6247 173.303 49.6712 172.083 46.8291C172 46.6361 172.064 46.3987 172.235 46.3022C172.401 46.2057 172.604 46.2799 172.687 46.4803C173.92 49.3521 175 52.3353 175.884 55.3481C175.947 55.5559 175.852 55.7786 175.674 55.8528C175.636 55.8676 175.598 55.875 175.566 55.875V55.8676ZM86.335 46.8365C86.2968 46.8365 86.2587 46.8365 86.2206 46.8142C86.0426 46.74 85.9536 46.5174 86.0172 46.3096C86.443 44.9145 86.8943 43.5045 87.3646 42.1317C87.9239 40.5139 88.515 38.9259 89.1252 37.4046C89.2015 37.2043 89.4049 37.1226 89.5765 37.2191C89.7481 37.3156 89.818 37.5456 89.7354 37.746C89.1316 39.2524 88.5405 40.8256 87.9875 42.4285C87.5172 43.7939 87.0659 45.1816 86.6464 46.5693C86.5955 46.7326 86.4684 46.8291 86.3286 46.8291L86.335 46.8365ZM168.238 38.7923C168.129 38.7923 168.021 38.7329 167.958 38.6216C166.432 36.0021 164.748 33.4716 162.949 31.1043C162.829 30.9411 162.835 30.6888 162.975 30.5478C163.115 30.4068 163.324 30.4142 163.451 30.5775C165.269 32.967 166.973 35.5197 168.511 38.1764C168.619 38.3545 168.574 38.5994 168.422 38.7255C168.365 38.7701 168.295 38.7923 168.231 38.7923H168.238ZM93.3773 29.5757C93.3138 29.5757 93.2502 29.5534 93.193 29.5163C93.0341 29.3976 92.9896 29.1527 93.0913 28.9746C94.6422 26.1472 96.3201 23.5722 98.0871 21.3089C98.2142 21.1456 98.4303 21.1382 98.5638 21.2792C98.7036 21.4276 98.71 21.6725 98.5892 21.8358C96.8477 24.0694 95.1888 26.6148 93.6633 29.3976C93.5998 29.5163 93.4917 29.5831 93.3773 29.5831V29.5757ZM157.363 24.5147C157.286 24.5147 157.204 24.485 157.14 24.4182C155.074 22.3329 152.875 20.411 150.619 18.7116C150.46 18.5929 150.415 18.348 150.517 18.1624C150.619 17.9769 150.829 17.925 150.988 18.0437C153.269 19.7654 155.494 21.7096 157.585 23.8171C157.725 23.9581 157.744 24.2104 157.617 24.3737C157.553 24.4627 157.458 24.5072 157.363 24.5072V24.5147ZM104.462 15.6097C104.354 15.6097 104.252 15.5503 104.182 15.439C104.074 15.2609 104.113 15.016 104.265 14.8899C105.708 13.71 107.214 12.671 108.752 11.8102C109.668 11.2982 110.621 10.8233 111.587 10.4151C111.765 10.3409 111.956 10.4448 112.019 10.6526C112.083 10.8604 111.994 11.083 111.816 11.1572C110.869 11.5579 109.935 12.018 109.045 12.5226C107.538 13.3686 106.064 14.3853 104.653 15.5429C104.596 15.5948 104.526 15.6171 104.456 15.6171L104.462 15.6097ZM143.621 14.1701C143.576 14.1701 143.526 14.1552 143.481 14.133C142.242 13.4725 140.977 12.864 139.712 12.3223C138.435 11.7731 137.132 11.2834 135.835 10.8604C135.657 10.801 135.549 10.5858 135.6 10.3706C135.651 10.1628 135.841 10.0367 136.019 10.096C137.329 10.5264 138.651 11.0236 139.947 11.5802C141.225 12.1293 142.509 12.7453 143.761 13.4131C143.932 13.5022 144.009 13.7397 143.926 13.94C143.869 14.0884 143.748 14.1701 143.621 14.1701ZM127.877 9.07938C127.877 9.07938 127.852 9.07938 127.846 9.07938C125.068 8.75286 122.322 8.74544 119.723 9.06454C119.538 9.0868 119.373 8.93096 119.354 8.71576C119.335 8.50055 119.468 8.30761 119.653 8.28535C122.297 7.96625 125.093 7.96626 127.909 8.30019C128.093 8.32245 128.233 8.5154 128.214 8.7306C128.195 8.93096 128.049 9.0868 127.877 9.0868V9.07938Z" fill="white"/>
<path d="M178.324 69.841C178.153 69.841 178.006 69.6926 177.987 69.4923C177.828 67.9413 177.619 66.3755 177.364 64.8394C177.326 64.6242 177.447 64.4164 177.631 64.3793C177.816 64.3348 177.994 64.4758 178.025 64.691C178.286 66.2494 178.496 67.8374 178.661 69.4032C178.68 69.6184 178.553 69.8188 178.362 69.841C178.35 69.841 178.337 69.841 178.324 69.841Z" fill="white"/>
<path d="M346.507 96.3181C346.507 96.3181 346.494 96.3181 346.488 96.3181C345.338 96.2513 344.194 96.0509 343.081 95.717C342.903 95.665 342.789 95.4498 342.84 95.2346C342.884 95.0268 343.075 94.8933 343.253 94.9526C344.321 95.2717 345.42 95.4647 346.52 95.5315C346.704 95.5389 346.85 95.7244 346.844 95.947C346.838 96.1548 346.685 96.3255 346.507 96.3255V96.3181ZM349.876 96.1177C349.71 96.1177 349.564 95.9767 349.539 95.7838C349.513 95.5686 349.641 95.3682 349.825 95.3311C350.918 95.1382 351.992 94.8116 353.028 94.3664C353.206 94.2922 353.397 94.3961 353.46 94.5964C353.524 94.8042 353.435 95.0268 353.263 95.1011C352.189 95.5686 351.064 95.9025 349.927 96.1103C349.908 96.1103 349.895 96.1103 349.876 96.1103V96.1177ZM340.005 94.359C339.954 94.359 339.903 94.3441 339.859 94.3219C338.829 93.7282 337.844 93.0158 336.935 92.1921C336.789 92.0585 336.763 91.8136 336.872 91.6355C336.986 91.4649 337.196 91.4352 337.348 91.5613C338.219 92.3479 339.166 93.0381 340.158 93.6021C340.323 93.6985 340.393 93.936 340.31 94.1289C340.253 94.2699 340.132 94.3516 340.005 94.3516V94.359ZM356.174 93.3869C356.06 93.3869 355.952 93.3201 355.888 93.2013C355.787 93.0158 355.838 92.7709 355.997 92.6596C356.931 91.9769 357.808 91.1829 358.609 90.2924C358.742 90.144 358.958 90.1514 359.085 90.3072C359.213 90.4631 359.206 90.7154 359.073 90.8638C358.24 91.7914 357.325 92.6151 356.352 93.3275C356.295 93.372 356.232 93.3869 356.174 93.3869ZM334.691 89.5577C334.596 89.5577 334.501 89.5132 334.437 89.4167C333.687 88.4001 333.026 87.2869 332.467 86.1219C332.378 85.9289 332.435 85.6915 332.6 85.5876C332.766 85.4837 332.969 85.5505 333.058 85.7434C333.592 86.8714 334.234 87.9326 334.952 88.9121C335.073 89.0754 335.06 89.3277 334.914 89.4687C334.85 89.5354 334.774 89.5651 334.691 89.5651V89.5577ZM361.043 87.9845C360.98 87.9845 360.91 87.9622 360.852 87.9103C360.7 87.7841 360.662 87.5392 360.77 87.3611C361.399 86.3074 361.939 85.172 362.378 83.9847C362.454 83.7843 362.651 83.6953 362.823 83.7769C362.994 83.8659 363.071 84.096 363.001 84.2964C362.549 85.5282 361.984 86.7081 361.329 87.8138C361.266 87.9251 361.158 87.9845 361.049 87.9845H361.043ZM331.424 82.7083C331.278 82.7083 331.145 82.597 331.1 82.4337C330.757 81.1574 330.522 79.829 330.408 78.4933C330.388 78.2781 330.522 78.0851 330.713 78.0629C330.903 78.048 331.062 78.1964 331.081 78.4191C331.189 79.7029 331.418 80.9718 331.749 82.2037C331.806 82.4115 331.704 82.6341 331.526 82.7009C331.494 82.7157 331.456 82.7157 331.424 82.7157V82.7083ZM363.694 80.7789C363.694 80.7789 363.649 80.7789 363.624 80.7715C363.439 80.7269 363.325 80.5192 363.363 80.304C363.585 79.0498 363.694 77.7586 363.694 76.46C363.694 76.46 363.694 76.4526 363.694 76.4451C363.694 76.4451 363.694 76.4303 363.694 76.4229C363.694 75.1317 363.579 73.8404 363.357 72.5789C363.319 72.3637 363.439 72.1559 363.617 72.1114C363.802 72.0669 363.98 72.2079 364.018 72.4156C364.247 73.7217 364.367 75.0723 364.367 76.4155C364.367 76.4155 364.367 76.4229 364.367 76.4303C364.367 76.4303 364.367 76.4451 364.367 76.4526C364.367 77.8031 364.253 79.1463 364.024 80.4524C363.992 80.6379 363.852 80.7715 363.694 80.7715V80.7789ZM330.738 74.9016C330.738 74.9016 330.713 74.9016 330.706 74.9016C330.522 74.8793 330.382 74.6864 330.401 74.4712C330.516 73.1355 330.744 71.8071 331.088 70.5307C331.145 70.323 331.335 70.2042 331.513 70.271C331.691 70.3378 331.793 70.5604 331.736 70.7682C331.405 71.9926 331.183 73.269 331.075 74.5528C331.056 74.7532 330.91 74.909 330.738 74.909V74.9016ZM362.67 69.1431C362.537 69.1431 362.416 69.054 362.359 68.9056C361.92 67.7257 361.38 66.5903 360.744 65.5365C360.636 65.3584 360.674 65.1136 360.827 64.9874C360.98 64.8612 361.189 64.9058 361.297 65.0839C361.958 66.1822 362.524 67.3621 362.975 68.5939C363.052 68.7943 362.975 69.0243 362.797 69.1134C362.753 69.1356 362.708 69.1431 362.664 69.1431H362.67ZM332.74 67.4214C332.683 67.4214 332.626 67.4066 332.575 67.3695C332.41 67.2656 332.352 67.0207 332.441 66.8352C333.001 65.6627 333.662 64.557 334.405 63.5329C334.526 63.3697 334.742 63.3474 334.882 63.4884C335.022 63.6294 335.041 63.8817 334.92 64.045C334.202 65.0245 333.566 66.0931 333.033 67.2136C332.969 67.3472 332.855 67.414 332.734 67.414L332.74 67.4214ZM358.819 62.7166C358.736 62.7166 358.653 62.6795 358.583 62.6053C357.783 61.7148 356.899 60.9208 355.965 60.2455C355.806 60.1342 355.755 59.8893 355.857 59.7038C355.958 59.5183 356.162 59.4589 356.321 59.5776C357.293 60.2826 358.215 61.1137 359.047 62.0339C359.181 62.1823 359.187 62.4346 359.06 62.5905C358.997 62.6721 358.901 62.7166 358.812 62.7166H358.819ZM337.113 61.4625C337.011 61.4625 336.91 61.4106 336.846 61.3067C336.732 61.136 336.757 60.8837 336.903 60.7501C337.812 59.9264 338.791 59.2066 339.821 58.6129C339.986 58.5165 340.189 58.5981 340.272 58.791C340.355 58.984 340.285 59.2214 340.119 59.3179C339.134 59.8893 338.187 60.572 337.316 61.366C337.253 61.4254 337.183 61.4477 337.107 61.4477L337.113 61.4625ZM353.117 58.5684C353.079 58.5684 353.041 58.561 353.003 58.5461C351.967 58.1009 350.893 57.7744 349.799 57.5889C349.615 57.5592 349.488 57.3588 349.513 57.1362C349.539 56.921 349.717 56.78 349.901 56.8022C351.039 57.0026 352.164 57.3365 353.238 57.8041C353.416 57.8783 353.505 58.1083 353.441 58.3087C353.391 58.4719 353.263 58.5684 353.124 58.5684H353.117ZM343.138 57.997C342.986 57.997 342.852 57.8783 342.814 57.7002C342.77 57.4924 342.878 57.2772 343.056 57.2178C344.162 56.8839 345.306 56.6761 346.463 56.6093C346.628 56.587 346.806 56.7651 346.819 56.9803C346.825 57.1956 346.685 57.3811 346.501 57.3959C345.395 57.4627 344.295 57.6556 343.234 57.9822C343.208 57.9896 343.177 57.997 343.151 57.997H343.138Z" fill="#E80404"/>
<path d="M13.1652 36.8629C12.9999 36.8629 12.8601 36.7293 12.8347 36.529C12.8029 36.3138 12.93 36.1134 13.1143 36.0763C14.1694 35.8685 15.1927 35.3713 16.0571 34.6293C16.2097 34.5031 16.4194 34.5402 16.5275 34.7109C16.6355 34.889 16.6038 35.1339 16.4576 35.26C15.5042 36.0763 14.3855 36.6255 13.2224 36.8555C13.2033 36.8555 13.1843 36.8555 13.1652 36.8555V36.8629ZM9.82197 36.5884C9.79019 36.5884 9.75205 36.5884 9.72027 36.5735C8.59527 36.1654 7.5529 35.4381 6.70756 34.4734C6.57409 34.3176 6.56773 34.0727 6.70121 33.9169C6.83468 33.761 7.04443 33.761 7.1779 33.9094C7.94697 34.7851 8.90036 35.4455 9.91731 35.824C10.0953 35.8908 10.197 36.1134 10.1398 36.3212C10.0953 36.4919 9.9618 36.5958 9.81561 36.5958L9.82197 36.5884ZM18.4215 32.3585C18.3707 32.3585 18.3199 32.3436 18.269 32.314C18.1038 32.2175 18.0338 31.98 18.1228 31.7797C18.6122 30.6517 18.8601 29.4273 18.8601 28.1509C18.8601 27.9357 19.0126 27.7576 19.197 27.7576C19.3813 27.7576 19.5338 27.9357 19.5338 28.1509C19.5338 29.5534 19.2605 30.8966 18.7203 32.1359C18.6631 32.2769 18.5423 32.3511 18.4152 32.3511L18.4215 32.3585ZM5.15036 31.2825C5.01053 31.2825 4.87705 31.1786 4.83256 31.0153C4.56561 30.0951 4.42578 29.1379 4.42578 28.1583C4.42578 27.7502 4.45121 27.342 4.4957 26.9413C4.52112 26.7261 4.69273 26.5703 4.87705 26.6074C5.06137 26.637 5.18849 26.8374 5.16307 27.0526C5.11858 27.4162 5.09951 27.7873 5.09951 28.1583C5.09951 29.0488 5.22663 29.9245 5.46815 30.763C5.53171 30.9708 5.43638 31.1934 5.25841 31.2676C5.22027 31.2825 5.18214 31.2899 5.15036 31.2899V31.2825ZM19.0635 26.9413C18.9046 26.9413 18.7648 26.8077 18.733 26.6222C18.5296 25.3903 18.072 24.2179 17.411 23.2309C17.2965 23.0602 17.322 22.8079 17.4682 22.6743C17.6143 22.5408 17.8304 22.5704 17.9449 22.7411C18.6694 23.832 19.1715 25.1232 19.394 26.4738C19.4321 26.689 19.3114 26.8968 19.1271 26.9339C19.108 26.9339 19.0826 26.9339 19.0635 26.9339V26.9413ZM6.0529 23.7429C5.98299 23.7429 5.91943 23.7207 5.86222 23.6687C5.70968 23.5426 5.67154 23.2977 5.7796 23.1196C6.45332 21.9916 7.35587 21.0417 8.39188 20.3887C8.55714 20.2848 8.76053 20.359 8.84951 20.552C8.93849 20.7449 8.87494 20.9824 8.70968 21.0863C7.769 21.6799 6.94273 22.5408 6.32621 23.5722C6.26265 23.6836 6.1546 23.7429 6.04654 23.7429H6.0529ZM15.0656 20.9304C15.0148 20.9304 14.9703 20.9156 14.9194 20.8933C13.9978 20.3813 13.0063 20.1216 11.9766 20.1216H11.7923C11.5889 20.1216 11.4491 19.9583 11.4427 19.7431C11.4427 19.5279 11.5826 19.3424 11.7732 19.335H11.9766C13.108 19.335 14.1949 19.617 15.2054 20.1809C15.3771 20.2774 15.447 20.5075 15.3643 20.7078C15.3071 20.8488 15.1864 20.9304 15.0593 20.9304H15.0656Z" fill="#E80404"/>
<path d="M361.063 88.6301C362.31 88.6301 363.32 87.4507 363.32 85.9957C363.32 84.5408 362.31 83.3613 361.063 83.3613C359.817 83.3613 358.807 84.5408 358.807 85.9957C358.807 87.4507 359.817 88.6301 361.063 88.6301Z" fill="white"/>
<path d="M0.256356 45.5305C1.50251 45.5305 2.51271 44.351 2.51271 42.8961C2.51271 41.4412 1.50251 40.2617 0.256356 40.2617C-0.989795 40.2617 -2 41.4412 -2 42.8961C-2 44.351 -0.989795 45.5305 0.256356 45.5305Z" fill="#E80404"/>
<path d="M142.617 84.2584C142.617 85.8613 141.505 87.1525 140.138 87.1525C138.771 87.1525 137.659 85.8538 137.659 84.2584C137.659 82.6629 138.771 81.3643 140.138 81.3643C141.505 81.3643 142.617 82.6629 142.617 84.2584Z" fill="white"/>
<path d="M313.432 56.6154C314.429 56.6154 315.237 55.6719 315.237 54.5079C315.237 53.344 314.429 52.4004 313.432 52.4004C312.435 52.4004 311.627 53.344 311.627 54.5079C311.627 55.6719 312.435 56.6154 313.432 56.6154Z" fill="white"/>
<path d="M18.5926 42.9335C3.80239 49.5158 -4.03447 68.1049 0.0968828 85.5661C0.401968 86.8647 1.42527 87.7478 2.58205 87.7404C8.25154 87.7107 26.3151 85.6106 55.5969 63.7712C56.6965 62.9549 57.116 61.2926 56.5249 59.942C49.5524 43.9873 33.2558 36.4032 18.599 42.9335H18.5926Z" fill="#FB1A1A"/>
<path d="M24.1028 99.8357L1.7998 86.6638L2.09218 85.9959L20.7405 97.0158L5.4354 84.1407L5.8104 83.5322L24.4333 99.1976L24.1028 99.8357Z" fill="#FB1A1A"/>
<path d="M46.8953 89.6922L46.2852 89.4695L51.2491 63.3112L51.872 63.467L47.7915 84.9725L55.4313 62.25L56.0224 62.5246L46.8953 89.6922Z" fill="#FB1A1A"/>
<path d="M18.6055 103.293L38.4995 102.625L47.2834 129.258L26.6712 127.084L18.6055 103.293Z" fill="#FED093"/>
<path d="M38.499 102.626L47.2829 129.259L60.6113 111.397L52.4757 87.6504L38.499 102.626Z" fill="#F2BD74"/>
<path d="M18.6055 103.293L38.4995 102.626L52.4762 87.6504L32.8555 87.9324L18.6055 103.293Z" fill="#EBB367"/>
<path d="M31.6287 108.659L26.2961 108.043L24.6816 103.101L29.7537 102.938L31.6287 108.659Z" fill="white"/>
<path d="M46.1773 102.181L49.8065 97.5725L48.1222 92.415L44.2959 96.4149L46.1773 102.181Z" fill="white"/>
<path d="M37.616 87.8658L24.6816 103.101L29.6901 103.004L42.5037 87.7842L37.616 87.8658Z" fill="white"/>
<path d="M25.978 95.2866L44.2958 96.4145L48.1221 92.4147L29.5755 91.3906L25.978 95.2866Z" fill="white"/>
<path d="M24.8403 103.221C25.6475 102.879 26.4611 102.775 27.281 102.731C28.1009 102.709 28.9208 102.746 29.7471 103.028C28.9399 103.377 28.1264 103.473 27.3064 103.518C26.4865 103.54 25.6666 103.503 24.8403 103.221Z" fill="#0F2342"/>
<path d="M44.4614 96.408C44.9127 95.4878 45.5038 94.7457 46.133 94.0482C46.775 93.3655 47.4487 92.7273 48.2686 92.2598C47.8174 93.1799 47.2263 93.922 46.597 94.6196C45.9551 95.3023 45.2813 95.9405 44.4614 96.408Z" fill="#0F2342"/>
<path d="M18.3321 44.5723C17.0482 45.8338 15.8596 47.2141 14.7601 48.6834C13.6478 50.1379 12.6118 51.6666 11.6774 53.2769C9.78973 56.4753 8.23888 59.9556 7.17108 63.6215C6.6054 65.447 6.19862 67.3319 5.87447 69.2316C5.53761 71.1314 5.41685 73.0756 5.29608 75.0124C5.28973 75.9846 5.22616 76.9567 5.27701 77.9288L5.32151 79.3907L5.42956 80.8452C5.47405 81.8173 5.62024 82.782 5.72193 83.7541C5.84269 84.7189 6.02066 85.6761 6.16049 86.6408C5.70922 84.756 5.33422 82.834 5.1054 80.8897L4.94651 79.4278L4.85752 77.9585C4.7749 76.9789 4.80667 75.992 4.78125 75.005C4.84481 71.0571 5.44862 67.1241 6.53549 63.3766C7.67956 59.6588 9.24947 56.1116 11.2579 52.9429C13.2664 49.7817 15.6054 46.8801 18.3321 44.5871V44.5723Z" fill="#0F2342"/>
<path d="M20.8682 43.5856C24.0779 43.1701 27.3385 43.3482 30.5419 43.927C33.7453 44.5058 36.8915 45.6338 39.8216 47.3109C41.2834 48.1569 42.6627 49.2032 43.9466 50.3757C45.2305 51.5482 46.4317 52.8691 47.4296 54.3755C49.508 57.3216 50.8682 60.8761 51.6436 64.5198C51.0843 62.7536 50.5377 60.98 49.7305 59.3623C49.3809 58.5237 48.9106 57.7594 48.4974 56.9654C48.0144 56.2233 47.5695 55.4441 47.0292 54.7614C46.5271 54.0416 45.9423 53.4034 45.3894 52.7355C44.7919 52.1196 44.2135 51.4888 43.5652 50.9397C42.3004 49.8117 40.9466 48.8173 39.5165 48.0084C36.6754 46.3165 33.5928 45.2182 30.4466 44.5207C28.8767 44.1645 27.2813 43.9122 25.6796 43.7637C24.0779 43.5931 22.4699 43.5337 20.8555 43.5856H20.8682Z" fill="#0F2342"/>
<path d="M19.8506 45.5596C19.3612 47.1105 18.8972 48.6689 18.5031 50.2569C18.0836 51.8302 17.715 53.4182 17.3781 55.0211C16.7171 58.2195 16.1769 61.4549 15.8718 64.7201C15.5095 67.9778 15.4713 71.2727 15.5857 74.5453L15.7574 77.0016C15.8019 77.8253 15.9735 78.6267 16.0688 79.4356C16.215 81.083 16.679 82.6414 16.9713 84.2665C15.9862 81.1646 15.3188 77.9069 15.0709 74.5898C14.8421 71.2727 14.8866 67.9333 15.2044 64.6311C15.573 61.3362 16.1006 58.0636 16.876 54.8727C17.6578 51.6892 18.6048 48.5427 19.8442 45.567L19.8506 45.5596Z" fill="#0F2342"/>
<path d="M21.0396 45.5596C23.6455 46.2868 26.1307 47.578 28.4506 49.1587C30.7768 50.7393 32.9252 52.691 34.8383 54.9172C36.7133 57.1731 38.4421 59.6369 39.7451 62.39C40.4633 63.7257 40.9845 65.1802 41.5438 66.5976C41.8425 67.3026 42.0141 68.0669 42.2366 68.8016C42.4527 69.5436 42.6561 70.2857 42.8595 71.0278C41.8235 68.1485 40.7684 65.2841 39.3001 62.7016L38.7663 61.7221C38.5946 61.3882 38.4167 61.0616 38.2133 60.7648L37.0247 58.9096C36.637 58.2788 36.1603 57.7371 35.7345 57.1509L35.0735 56.2826C34.8446 56.0007 34.5968 55.7483 34.3616 55.4738C33.8849 54.9395 33.44 54.3607 32.9315 53.8635L31.4251 52.357L29.8298 50.9693C29.2896 50.5241 28.7302 50.1085 28.1836 49.6707C27.6307 49.2403 27.0459 48.8693 26.4802 48.4685C25.9018 48.0901 25.3107 47.7339 24.7196 47.3851C23.5311 46.6875 22.3044 46.0716 21.0396 45.5596Z" fill="#0F2342"/>
<path d="M339.791 1.13285C324.396 -3.15638 308.945 7.03982 303.937 24.1819C303.562 25.4583 303.981 26.8608 304.935 27.6103C309.632 31.3133 325.566 41.465 360.295 42.6894C361.598 42.7339 362.742 41.6431 362.907 40.1366C364.846 22.3712 355.051 5.38498 339.791 1.12543V1.13285Z" fill="#FB1A1A"/>
<path d="M316.878 51.7656L304.814 26.2083L305.373 25.8447L315.467 47.2241L309.034 26.52L309.638 26.2603L317.456 51.4539L316.878 51.7656Z" fill="#FB1A1A"/>
<path d="M340.604 58.3772L340.204 57.7984L356.932 39.4541L357.371 39.9958L343.623 55.0749L360.899 41.3316L361.255 41.9475L340.604 58.3772Z" fill="#FB1A1A"/>
<path d="M310.667 51.001L327.422 63.5347L321.822 91.3183L305.85 75.9646L310.667 51.001Z" fill="#FED093"/>
<path d="M327.421 63.5339L321.822 91.3174L341.455 85.3363L346.197 60.3652L327.421 63.5339Z" fill="#F2BD74"/>
<path d="M310.667 51.0007L327.421 63.5344L346.197 60.3658L329.849 47.6836L310.667 51.0007Z" fill="#EBB367"/>
<path d="M318.828 64.002L314.729 59.9799L315.777 54.8447L320.048 58.0505L318.828 64.002Z" fill="white"/>
<path d="M333.98 68.2315L339.199 66.8067L340.298 61.4414L335.207 62.228L333.98 68.2315Z" fill="white"/>
<path d="M333.815 50.7627L315.777 54.8441L319.966 58.0574L337.896 53.9165L333.815 50.7627Z" fill="white"/>
<path d="M320.621 49.2411L335.207 62.2275L340.299 61.4409L325.477 48.3877L320.621 49.2411Z" fill="white"/>
<path d="M338.659 2.30537C336.981 2.40184 335.322 2.66157 333.689 3.04745C332.049 3.41107 330.428 3.90084 328.852 4.51677C325.687 5.72636 322.655 7.39605 319.897 9.5555C318.505 10.6093 317.195 11.8114 315.956 13.0952C314.704 14.3716 313.598 15.8261 312.498 17.2806C311.99 18.0449 311.437 18.7796 310.973 19.5884L310.248 20.7758L309.581 22.0076C309.11 22.8165 308.723 23.6847 308.303 24.5233C307.897 25.3767 307.547 26.2672 307.153 27.128C307.769 25.3099 308.469 23.5215 309.301 21.8073L309.937 20.5309L310.63 19.299C311.074 18.4605 311.608 17.6961 312.104 16.8947C314.202 13.8002 316.725 11.099 319.534 8.89505C322.375 6.75044 325.464 5.03623 328.712 3.93795C331.947 2.83967 335.316 2.19406 338.678 2.30537H338.659Z" fill="#0F2342"/>
<path d="M341.195 3.31445C343.966 5.25871 346.464 7.70757 348.714 10.431C350.964 13.1619 352.878 16.286 354.339 19.6922C355.058 21.399 355.617 23.2097 356.03 25.05C356.443 26.8904 356.71 28.7901 356.723 30.6973C356.85 34.5116 356.081 38.2962 354.81 41.7468C355.286 39.951 355.769 38.1552 355.96 36.2925C356.119 35.3724 356.144 34.4373 356.227 33.5097C356.227 32.5747 356.278 31.6471 356.202 30.7195C356.176 29.7919 356.043 28.8717 355.954 27.9516C355.801 27.0388 355.668 26.126 355.439 25.2355C355.019 23.4471 354.46 21.6958 353.742 20.041C352.363 16.6868 350.481 13.6294 348.346 10.8466C347.278 9.45147 346.147 8.12314 344.945 6.87644C343.757 5.60748 342.511 4.42015 341.202 3.32187L341.195 3.31445Z" fill="#0F2342"/>
<path d="M339.358 4.16797C338.163 5.05847 336.981 5.96381 335.85 6.95077C334.699 7.90806 333.581 8.90987 332.481 9.94136C330.295 12.0192 328.191 14.2083 326.252 16.5904C324.269 18.928 322.534 21.5178 320.926 24.2042L319.788 26.2746C319.401 26.9647 319.115 27.7142 318.771 28.434C318.034 29.844 317.589 31.4172 316.979 32.9162C317.805 29.7549 318.968 26.6901 320.494 23.8776C322.032 21.08 323.805 18.453 325.769 16.0487C327.771 13.6889 329.894 11.4626 332.17 9.47385C334.445 7.49249 336.829 5.65955 339.358 4.17539V4.16797Z" fill="#0F2342"/>
<path d="M340.299 5.00684C341.996 7.43344 343.299 10.2162 344.322 13.1178C345.352 16.0193 346.045 19.0915 346.413 22.2157C346.731 25.3399 346.826 28.516 346.439 31.6327C346.318 33.1985 345.975 34.7272 345.682 36.2559C345.555 37.0276 345.295 37.7549 345.085 38.497C344.869 39.239 344.646 39.9737 344.424 40.7084C345.091 37.6807 345.74 34.6604 345.918 31.5659L346 30.4083C346.032 30.0224 346.064 29.6365 346.057 29.2506L346.076 26.9353C346.095 26.1636 345.994 25.3918 345.962 24.62L345.886 23.4624C345.848 23.0765 345.79 22.6981 345.74 22.3196C345.638 21.5552 345.581 20.7835 345.441 20.034L345.021 17.7706L344.475 15.5444C344.278 14.8097 344.042 14.0825 343.839 13.3478C343.623 12.6132 343.35 11.9082 343.108 11.1884C342.841 10.476 342.555 9.77842 342.269 9.08086C341.691 7.68575 341.03 6.32774 340.292 5.0291L340.299 5.00684Z" fill="#0F2342"/>
<path d="M335.004 62.1863C335.837 61.7336 336.708 61.511 337.579 61.3477C338.456 61.2142 339.339 61.1325 340.248 61.2958C339.415 61.7559 338.545 61.9711 337.674 62.1269C336.797 62.2605 335.913 62.3421 335.004 62.1789V62.1863Z" fill="#0F2342"/>
<path d="M315.892 54.5791C316.756 54.9576 317.5 55.529 318.212 56.1375C318.911 56.7682 319.579 57.451 320.119 58.3266C319.254 57.9482 318.511 57.3842 317.799 56.7682C317.1 56.1301 316.432 55.4548 315.892 54.5791Z" fill="#0F2342"/>
<path opacity="0.4" fill-rule="evenodd" clip-rule="evenodd" d="M163.364 34.6914C158.586 34.6914 154.806 38.7335 155.125 43.5004L155.861 54.5028C156.235 60.0815 158.55 65.3533 162.405 69.4028C164.598 71.7061 167.228 73.5492 170.141 74.8243L171.161 72.4956L170.141 74.8243L170.381 74.9293C176.829 77.7514 184.163 77.7514 190.611 74.9293L189.574 72.558L190.611 74.9293L190.851 74.8243C193.765 73.5492 196.395 71.7061 198.587 69.4028C202.443 65.3533 204.758 60.0815 205.131 54.5028L205.868 43.5004C206.187 38.7335 202.406 34.6914 197.629 34.6914H163.364Z" fill="#F59E0B"/>
<path fill-rule="evenodd" clip-rule="evenodd" d="M187.389 86.0459H173.608C170.906 86.0459 168.389 87.4198 166.928 89.6927L164.014 94.2257C161.38 98.3231 164.322 103.712 169.193 103.712L191.804 103.712C196.675 103.712 199.617 98.3231 196.983 94.2257L194.069 89.6927C192.608 87.4198 190.091 86.0459 187.389 86.0459Z" fill="#F59E0B"/>
<path fill-rule="evenodd" clip-rule="evenodd" d="M177.91 76.9125C179.631 77.0898 181.366 77.0897 183.087 76.9121V88.336C183.087 89.7655 181.928 90.9244 180.498 90.9244C179.069 90.9244 177.91 89.7655 177.91 88.336V76.9125Z" fill="#F59E0B"/>
<path fill-rule="evenodd" clip-rule="evenodd" d="M156.667 59.2584C157.435 62.0455 158.703 64.6757 160.413 67.0176C154.892 65.2247 149.746 60.8657 146.623 56.0823C143.467 51.2484 141.668 44.7053 145.787 39.9075C148.508 36.7384 152.806 36.5204 156.502 38.3541C155.522 39.814 154.998 41.5995 155.125 43.5002L155.126 43.5175C152.697 41.7588 150.511 42.3529 149.715 43.2799C147.967 45.3164 148.134 48.9275 150.958 53.2521C152.433 55.5111 154.44 57.613 156.667 59.2584Z" fill="#F59E0B"/>
<path fill-rule="evenodd" clip-rule="evenodd" d="M205.868 43.5213L205.869 43.5002C205.996 41.6003 205.472 39.8155 204.493 38.3559C208.19 36.5203 212.49 36.7374 215.212 39.9075C219.331 44.7053 217.532 51.2484 214.376 56.0823C211.251 60.8676 206.103 65.2281 200.579 67.0197C202.29 64.6786 203.558 62.0492 204.326 59.263C206.556 57.6169 208.565 55.5132 210.041 53.2521C212.864 48.9275 213.032 45.3164 211.284 43.2799C210.487 42.3523 208.299 41.7579 205.868 43.5213Z" fill="#F59E0B"/>
<path fill-rule="evenodd" clip-rule="evenodd" d="M183.636 45.6196C182.3 43.1281 178.7 43.1281 177.364 45.6196L175.602 48.9061L171.924 49.4045C169.029 49.7971 167.744 53.3927 169.978 55.4662L172.584 57.8856L171.955 61.3073C171.414 64.2486 174.481 66.325 177.004 65.1069L180.5 63.4191L183.996 65.1069C186.519 66.325 189.586 64.2486 189.045 61.3073L188.415 57.8856L191.022 55.4662C193.255 53.3927 191.971 49.7971 189.075 49.4045L185.398 48.9061L183.636 45.6196Z" fill="#F59E0B"/>
</g>
<defs>
<clipPath id="clip0_13074_23072">
<path d="M0 24C0 10.7452 10.7452 0 24 0H337C350.255 0 361 10.7452 361 24V114.408C361 127.663 350.255 138.408 337 138.408H24C10.7452 138.408 0 127.663 0 114.408V24Z" fill="white"/>
</clipPath>
</defs>
</svg>
