<svg width="44" height="44" viewBox="0 0 44 44" fill="none" xmlns="http://www.w3.org/2000/svg">
<g id="box-2">
<path id="line-4" d="M27.1854 15.0046H28.7646C28.7646 14.4926 28.5163 14.0123 28.0985 13.7162L27.1854 15.0046ZM25.6062 20.1652C25.6062 21.0374 26.3133 21.7444 27.1854 21.7444C28.0576 21.7444 28.7646 21.0374 28.7646 20.1652H25.6062ZM25.6062 15.0046V20.1652H28.7646V15.0046H25.6062ZM28.0985 13.7162L16.3833 5.41418L14.5571 7.9911L26.2724 16.2931L28.0985 13.7162Z" fill="white"/>
<path id="line-3" d="M37.9398 14.2428C37.6581 12.5937 36.7289 11.1067 35.3343 10.131L29.0302 5.72074C27.4703 4.62945 25.5014 4.29988 23.6711 4.82369L10.1226 8.70121C7.4122 9.47692 5.54395 11.9549 5.54395 14.7741V28.7801C5.54395 29.943 5.86407 31.0647 6.44634 32.0337M38.03 20.2386V29.3128C38.03 32.1321 36.1618 34.61 33.4513 35.3858L19.9028 39.2633C18.0726 39.7871 16.1037 39.4575 14.5438 38.3662L10.6574 35.6473" stroke="white" stroke-width="3.15837" stroke-linecap="round" stroke-linejoin="round"/>
<path id="line-2" d="M37.1278 12.117L19.1823 17.3302C17.6489 17.7756 15.9971 17.5215 14.6685 16.6358L5.89258 10.7852" stroke="white" stroke-width="3.15837" stroke-linejoin="round"/>
<path id="line-1" d="M17.2749 17.03V40.0911" stroke="white" stroke-width="3.15837" stroke-linejoin="round"/>
</g>
</svg>
