<svg width="44" height="44" viewBox="0 0 44 44" fill="none" xmlns="http://www.w3.org/2000/svg">
<g id="box-fast">
<path id="line-6" d="M8.67725 32.8721H13.1892" stroke="white" stroke-width="2.70717" stroke-linecap="round"/>
<path id="line-5" d="M6.87256 22.0435H10.4821" stroke="white" stroke-width="2.70717" stroke-linecap="round"/>
<path id="line-4" d="M4.16504 27.4578H12.2866" stroke="white" stroke-width="2.70717" stroke-linecap="round"/>
<path id="line-3" d="M31.2611 5.72056L37.5652 10.1308C39.2547 11.3128 40.261 13.2448 40.261 15.3067V29.3127C40.261 32.1319 38.3927 34.6099 35.6823 35.3856L22.1338 39.2631C20.3035 39.7869 18.3346 39.4573 16.7747 38.3661L15.1987 37.2635M7.7749 16.3626V14.7739C7.7749 11.9547 9.64316 9.47675 12.3536 8.70103L24.9203 5.10449" stroke="white" stroke-width="3.15837" stroke-linecap="round" stroke-linejoin="round"/>
<path id="line-2" d="M39.3588 12.117L21.4133 17.3302C19.8799 17.7756 18.2281 17.5215 16.8995 16.6358L8.12354 10.7852" stroke="white" stroke-width="3.15837" stroke-linejoin="round"/>
<path id="line-1" d="M19.5059 17.03V40.0911" stroke="white" stroke-width="3.15837" stroke-linejoin="round"/>
</g>
</svg>
