<svg width="17" height="17" viewBox="0 0 17 17" fill="none" xmlns="http://www.w3.org/2000/svg">
<g id="Chat Dots">
<path id="Vector" fill-rule="evenodd" clip-rule="evenodd" d="M9.12499 14.7586L9.48639 14.1481L9.4864 14.148C9.76671 13.6745 9.90687 13.4377 10.132 13.3067C10.3571 13.1758 10.6406 13.1709 11.2075 13.1611C12.0444 13.1467 12.5693 13.0954 13.0095 12.9131C13.8263 12.5748 14.4752 11.9259 14.8135 11.1091C15.0672 10.4965 15.0672 9.71997 15.0672 8.16683V7.50016C15.0672 5.31788 15.0672 4.22673 14.576 3.42517C14.3012 2.97665 13.9241 2.59955 13.4755 2.3247C12.674 1.8335 11.5828 1.8335 9.40055 1.8335H7.40055C5.21827 1.8335 4.12712 1.8335 3.32556 2.3247C2.87704 2.59955 2.49994 2.97665 2.22509 3.42517C1.73389 4.22673 1.73389 5.31788 1.73389 7.50016V8.16683C1.73389 9.71997 1.73389 10.4965 1.98762 11.1091C2.32593 11.9259 2.97485 12.5748 3.79161 12.9131C4.23181 13.0954 4.7567 13.1467 5.59361 13.1611C6.1605 13.1709 6.44395 13.1758 6.66908 13.3067C6.89421 13.4377 7.03437 13.6745 7.31469 14.1481L7.67609 14.7586C7.9982 15.3028 8.80288 15.3028 9.12499 14.7586ZM5.73372 8.5C6.10191 8.5 6.40039 8.20152 6.40039 7.83333C6.40039 7.46514 6.10191 7.16667 5.73372 7.16667C5.36553 7.16667 5.06706 7.46514 5.06706 7.83333C5.06706 8.20152 5.36553 8.5 5.73372 8.5ZM9.06706 7.83333C9.06706 8.20152 8.76858 8.5 8.40039 8.5C8.0322 8.5 7.73372 8.20152 7.73372 7.83333C7.73372 7.46514 8.0322 7.16667 8.40039 7.16667C8.76858 7.16667 9.06706 7.46514 9.06706 7.83333ZM11.7337 7.83333C11.7337 8.20152 11.4352 8.5 11.0671 8.5C10.6989 8.5 10.4004 8.20152 10.4004 7.83333C10.4004 7.46514 10.6989 7.16667 11.0671 7.16667C11.4352 7.16667 11.7337 7.46514 11.7337 7.83333Z" fill="#E80404"/>
</g>
</svg>
