<svg width="20" height="21" viewBox="0 0 20 21" fill="none" xmlns="http://www.w3.org/2000/svg">
<g id="contact-1">
<g id="merged">
<path fill-rule="evenodd" clip-rule="evenodd" d="M8.15088 7.56211C8.15088 6.07824 9.3538 4.87533 10.8377 4.87533C12.3215 4.87533 13.5245 6.07824 13.5245 7.56211C13.5245 9.04599 12.3215 10.2489 10.8377 10.2489C9.3538 10.2489 8.15088 9.04599 8.15088 7.56211ZM10.8377 6.12533C10.0442 6.12533 9.40088 6.7686 9.40088 7.56211C9.40088 8.35563 10.0442 8.9989 10.8377 8.9989C11.6312 8.9989 12.2745 8.35563 12.2745 7.56211C12.2745 6.7686 11.6312 6.12533 10.8377 6.12533Z" fill="#525252"/>
<path fill-rule="evenodd" clip-rule="evenodd" d="M9.14651 11.2672C8.37712 11.2672 7.66518 11.6743 7.27503 12.3375L6.93392 12.9173C6.6408 13.4155 6.5059 14.0119 6.63258 14.5639C6.76706 15.1498 7.18848 15.6285 7.86034 15.802C9.52887 16.2331 12.1499 16.2331 13.8184 15.802C14.4903 15.6285 14.9117 15.1498 15.0462 14.5639C15.1729 14.0119 15.038 13.4155 14.7449 12.9173L14.4038 12.3375C14.0136 11.6743 13.3017 11.2672 12.5323 11.2672H9.14651ZM8.3524 12.9713C8.51795 12.6899 8.82004 12.5172 9.14651 12.5172H12.5323C12.8587 12.5172 13.1608 12.6899 13.3264 12.9713L13.6675 13.5511C13.8353 13.8363 13.8684 14.1076 13.8279 14.2843C13.7951 14.427 13.714 14.538 13.5058 14.5918C12.0423 14.9698 9.63646 14.9698 8.173 14.5918C7.96475 14.538 7.88367 14.427 7.8509 14.2843C7.81035 14.1076 7.84348 13.8363 8.0113 13.5511L8.3524 12.9713Z" fill="#525252"/>
<path fill-rule="evenodd" clip-rule="evenodd" d="M2.70817 15.292V15.917C2.70817 17.873 4.29383 19.4587 6.24984 19.4587H15.4165C17.3725 19.4587 18.9582 17.873 18.9582 15.917V5.08366C18.9582 3.12765 17.3725 1.54199 15.4165 1.54199H6.24984C4.29383 1.54199 2.70817 3.12765 2.70817 5.08366V5.70866H1.6665C1.32133 5.70866 1.0415 5.98848 1.0415 6.33366C1.0415 6.67884 1.32133 6.95866 1.6665 6.95866H2.70817V14.042H1.6665C1.32133 14.042 1.0415 14.3218 1.0415 14.667C1.0415 15.0122 1.32133 15.292 1.6665 15.292H2.70817ZM6.24984 2.79199C4.98418 2.79199 3.95817 3.81801 3.95817 5.08366V5.70866H4.58317C4.92835 5.70866 5.20817 5.98848 5.20817 6.33366C5.20817 6.67884 4.92835 6.95866 4.58317 6.95866H3.95817V14.042H4.58317C4.92835 14.042 5.20817 14.3218 5.20817 14.667C5.20817 15.0122 4.92835 15.292 4.58317 15.292H3.95817V15.917C3.95817 17.1826 4.98418 18.2087 6.24984 18.2087H15.4165C16.6822 18.2087 17.7082 17.1826 17.7082 15.917V5.08366C17.7082 3.81801 16.6822 2.79199 15.4165 2.79199H6.24984Z" fill="#525252"/>
</g>
</g>
</svg>
