<svg width="30" height="30" viewBox="0 0 30 30" fill="none" xmlns="http://www.w3.org/2000/svg">
<rect width="30" height="30" rx="15" fill="#F2F1EA"/>
<path d="M16.625 18.75L17.25 15M12.75 15L13.375 18.75" stroke="#3C3C43" stroke-opacity="0.6" stroke-width="1.125" stroke-linecap="round" stroke-linejoin="round"/>
<path d="M7.875 10.6497L8.89216 10.382C12.8959 9.32839 17.1041 9.32839 21.1078 10.382L22.125 10.6497" stroke="#3C3C43" stroke-opacity="0.6" stroke-width="1.125" stroke-linecap="round"/>
<path d="M21 12.1504L19.9969 20.1552C19.8558 21.2808 18.8988 22.1254 17.7644 22.1254H12.2356C11.1012 22.1254 10.1442 21.2808 10.0031 20.1552L9 12.1504" stroke="#3C3C43" stroke-opacity="0.6" stroke-width="1.125" stroke-linecap="round" stroke-linejoin="round"/>
<path d="M17.25 9.5625L17.1685 9.29097C16.883 8.33925 15.9936 7.6875 15 7.6875C14.0064 7.6875 13.117 8.33925 12.8315 9.29097L12.75 9.5625" stroke="#3C3C43" stroke-opacity="0.6" stroke-width="1.125" stroke-linecap="round" stroke-linejoin="round"/>
</svg>
