<svg width="27" height="27" viewBox="0 0 27 27" fill="none" xmlns="http://www.w3.org/2000/svg">
<g id="discount-tag">
<path id="shaped-5" opacity="0.4" fill-rule="evenodd" clip-rule="evenodd" d="M11.3828 4.10698C14.5541 0.935695 19.6957 0.935694 22.867 4.10698C26.0383 7.27826 26.0383 12.4199 22.867 15.5912L14.1908 24.2674C12.7494 25.7089 10.4122 25.7089 8.97074 24.2674L2.70661 18.0033C1.26512 16.5618 1.26511 14.2247 2.70661 12.7832L11.3828 4.10698ZM16.7278 10.2449C17.4933 11.0104 18.7344 11.0104 19.4999 10.2449C20.2654 9.47945 20.2654 8.23836 19.4999 7.47288C18.7344 6.7074 17.4933 6.7074 16.7278 7.47288C15.9623 8.23836 15.9623 9.47945 16.7278 10.2449Z" fill="#15803D"/>
<path id="shaped-4" fill-rule="evenodd" clip-rule="evenodd" d="M18.9057 8.06678C18.4683 7.62936 17.7591 7.62936 17.3217 8.06678C16.8842 8.5042 16.8842 9.21339 17.3217 9.65081C17.7591 10.0882 18.4683 10.0882 18.9057 9.65081C19.3431 9.21339 19.3431 8.5042 18.9057 8.06678ZM16.1336 6.87875C17.2272 5.78521 19.0002 5.78521 20.0937 6.87875C21.1873 7.9723 21.1873 9.74529 20.0937 10.8388C19.0002 11.9324 17.2272 11.9324 16.1336 10.8388C15.0401 9.74529 15.0401 7.9723 16.1336 6.87875Z" fill="#15803D"/>
<path id="shaped-3" fill-rule="evenodd" clip-rule="evenodd" d="M14.5597 14.093C14.7518 14.5153 14.5652 15.0134 14.1429 15.2055L9.5143 17.3112C9.092 17.5033 8.59391 17.3167 8.40179 16.8944C8.20967 16.4721 8.39627 15.974 8.81857 15.7819L13.4472 13.6762C13.8695 13.4841 14.3676 13.6707 14.5597 14.093Z" fill="#15803D"/>
<path id="shaped-2" fill-rule="evenodd" clip-rule="evenodd" d="M11.8484 17.8324C12.2502 17.6004 12.764 17.7381 12.9959 18.1399L12.9991 18.1453C13.231 18.5471 13.0934 19.0609 12.6916 19.2929C12.2898 19.5248 11.776 19.3872 11.544 18.9854L11.5409 18.98C11.3089 18.5782 11.4466 18.0644 11.8484 17.8324Z" fill="#15803D"/>
<path id="shaped-1" fill-rule="evenodd" clip-rule="evenodd" d="M10.2122 11.7279C10.614 11.4959 11.1277 11.6336 11.3597 12.0354L11.3628 12.0408C11.5948 12.4426 11.4571 12.9564 11.0553 13.1884C10.6536 13.4203 10.1398 13.2827 9.9078 12.8809L9.90468 12.8755C9.6727 12.4737 9.81037 11.9599 10.2122 11.7279Z" fill="#15803D"/>
</g>
</svg>
