<svg width="20" height="21" viewBox="0 0 20 21" fill="none" xmlns="http://www.w3.org/2000/svg">
<g id="discount-coupon-2">
<g id="merged">
<path d="M14.3753 7.49479C14.3753 7.14961 14.0955 6.86979 13.7503 6.86979C13.4051 6.86979 13.1253 7.14961 13.1253 7.49479V9.616C13.1253 9.96118 13.4051 10.241 13.7503 10.241C14.0955 10.241 14.3753 9.96118 14.3753 9.616V7.49479Z" fill="black"/>
<path d="M14.3753 11.3837C14.3753 11.0385 14.0955 10.7587 13.7503 10.7587C13.4051 10.7587 13.1253 11.0385 13.1253 11.3837V13.5049C13.1253 13.8501 13.4051 14.1299 13.7503 14.1299C14.0955 14.1299 14.3753 13.8501 14.3753 13.5049V11.3837Z" fill="black"/>
<path d="M10.4805 8.39995C10.7014 8.13478 10.6656 7.74068 10.4004 7.5197C10.1353 7.29872 9.74117 7.33455 9.52019 7.59972L5.35352 12.5997C5.13254 12.8649 5.16837 13.259 5.43354 13.48C5.69872 13.701 6.09282 13.6651 6.3138 13.4L10.4805 8.39995Z" fill="black"/>
<path d="M9.04239 12.6873C9.21498 12.3884 9.59723 12.286 9.89616 12.4586L9.90338 12.4627C10.2023 12.6353 10.3047 13.0176 10.1321 13.3165C9.95955 13.6154 9.57731 13.7179 9.27838 13.5453L9.27116 13.5411C8.97223 13.3685 8.8698 12.9863 9.04239 12.6873Z" fill="black"/>
<path d="M6.56283 7.45857C6.26389 7.28598 5.88165 7.3884 5.70906 7.68734C5.53647 7.98627 5.63889 8.36851 5.93783 8.5411L5.94504 8.54527C6.24398 8.71786 6.62622 8.61544 6.79881 8.3165C6.9714 8.01757 6.86898 7.63533 6.57004 7.46274L6.56283 7.45857Z" fill="black"/>
<path fill-rule="evenodd" clip-rule="evenodd" d="M1.04199 7.58317C1.04199 5.62716 2.62765 4.0415 4.58366 4.0415H15.417C17.373 4.0415 18.9587 5.62716 18.9587 7.58317V8.4165C18.9587 9.01878 18.4818 9.38683 18.0754 9.49028C17.6247 9.60503 17.292 10.0144 17.292 10.4998C17.292 10.9853 17.6247 11.3946 18.0754 11.5094C18.4818 11.6128 18.9587 11.9809 18.9587 12.5832V13.4165C18.9587 15.3725 17.373 16.9582 15.417 16.9582H4.58366C2.62765 16.9582 1.04199 15.3725 1.04199 13.4165V12.5832C1.04199 11.9809 1.51888 11.6128 1.92525 11.5094C2.37598 11.3947 2.70866 10.9853 2.70866 10.4998C2.70866 10.0144 2.37598 9.60503 1.92525 9.49028C1.51889 9.38683 1.04199 9.01878 1.04199 8.4165V7.58317ZM4.58366 5.2915C3.31801 5.2915 2.29199 6.31752 2.29199 7.58317V8.2946C3.25354 8.56675 3.95866 9.4502 3.95866 10.4998C3.95866 11.5495 3.25354 12.4329 2.29199 12.7051V13.4165C2.29199 14.6822 3.31801 15.7082 4.58366 15.7082H13.1253V15.2726C13.1253 14.9274 13.4051 14.6476 13.7503 14.6476C14.0955 14.6476 14.3753 14.9274 14.3753 15.2726V15.7082H15.417C16.6826 15.7082 17.7087 14.6822 17.7087 13.4165V12.7051C16.7471 12.4329 16.042 11.5495 16.042 10.4998C16.042 9.4502 16.7471 8.56676 17.7087 8.2946V7.58317C17.7087 6.31752 16.6826 5.2915 15.417 5.2915H14.3753V5.72711C14.3753 6.07229 14.0955 6.35211 13.7503 6.35211C13.4051 6.35211 13.1253 6.07229 13.1253 5.72711V5.2915H4.58366Z" fill="black"/>
</g>
</g>
</svg>
