<svg width="25" height="24" viewBox="0 0 25 24" fill="none" xmlns="http://www.w3.org/2000/svg">
<g id="discount-2">
<path id="Vector" d="M8.78551 4.01124L8.92238 4.87547H8.92238L8.78551 4.01124ZM9.69102 3.63616L10.2053 4.34405L9.69102 3.63616ZM4.96496 6.08488L4.10073 5.94801L4.96496 6.08488ZM6.70988 4.33996L6.57301 3.47573L6.70988 4.33996ZM4.26116 9.06602L3.55328 8.5517H3.55328L4.26116 9.06602ZM4.63624 8.16051L5.50047 8.29738L4.63624 8.16051ZM3.02591 13.2339L2.31803 13.7482H2.31803L3.02591 13.2339ZM3.02591 10.7662L3.73379 11.2805H3.73379L3.02591 10.7662ZM4.63624 15.8395L5.50047 15.7026L4.63624 15.8395ZM4.26116 14.934L4.96905 14.4197L4.26116 14.934ZM6.70988 19.66L6.84675 18.7958L6.70988 19.66ZM4.96496 17.9151L4.10073 18.052L4.96496 17.9151ZM9.69102 20.3638L10.2053 19.656H10.2053L9.69102 20.3638ZM8.78551 19.9888L8.64865 20.853L8.78551 19.9888ZM13.8589 21.5991L14.3732 22.307L14.3732 22.307L13.8589 21.5991ZM11.3912 21.5991L10.8768 22.307L11.3912 21.5991ZM16.4645 19.9888L16.6014 20.853L16.4645 19.9888ZM15.559 20.3638L15.0447 19.656L15.0447 19.656L15.559 20.3638ZM20.285 17.9151L19.4208 17.7782L20.285 17.9151ZM18.5401 19.66L18.4033 18.7958L18.5401 19.66ZM20.9888 14.934L20.281 14.4197L20.281 14.4197L20.9888 14.934ZM20.6138 15.8395L21.478 15.9764L20.6138 15.8395ZM22.2241 10.7662L22.932 10.2518L22.932 10.2518L22.2241 10.7662ZM22.2241 13.2339L22.932 13.7482L22.932 13.7482L22.2241 13.2339ZM20.6138 8.16051L21.478 8.02365L20.6138 8.16051ZM20.9888 9.06602L20.281 9.58034L20.281 9.58034L20.9888 9.06602ZM18.5401 4.33996L18.677 3.47573L18.5401 4.33996ZM20.285 6.08488L19.4208 6.22175L20.285 6.08488ZM15.559 3.63616L15.0447 4.34405V4.34405L15.559 3.63616ZM16.4645 4.01124L16.3276 4.87547L16.4645 4.01124ZM13.8589 2.40091L14.3732 1.69303V1.69303L13.8589 2.40091ZM11.3912 2.40091L10.8768 1.69303V1.69303L11.3912 2.40091ZM9.625 8.125C9.14175 8.125 8.75 8.51675 8.75 9C8.75 9.48325 9.14175 9.875 9.625 9.875V8.125ZM9.635 9.875C10.1182 9.875 10.51 9.48325 10.51 9C10.51 8.51675 10.1182 8.125 9.635 8.125V9.875ZM15.625 14.125C15.1418 14.125 14.75 14.5168 14.75 15C14.75 15.4832 15.1418 15.875 15.625 15.875V14.125ZM15.635 15.875C16.1182 15.875 16.51 15.4832 16.51 15C16.51 14.5168 16.1182 14.125 15.635 14.125V15.875ZM17.2437 8.61872C17.5854 8.27701 17.5854 7.72299 17.2437 7.38128C16.902 7.03957 16.348 7.03957 16.0063 7.38128L17.2437 8.61872ZM8.00628 15.3813C7.66457 15.723 7.66457 16.277 8.00628 16.6187C8.34799 16.9604 8.90201 16.9604 9.24372 16.6187L8.00628 15.3813ZM13.3445 3.10879L15.0447 4.34405L16.0733 2.92828L14.3732 1.69303L13.3445 3.10879ZM16.3276 4.87547L18.4032 5.20418L18.677 3.47573L16.6014 3.14701L16.3276 4.87547ZM19.4208 6.22175L19.7495 8.29738L21.478 8.02365L21.1493 5.94801L19.4208 6.22175ZM20.281 9.58034L21.5162 11.2805L22.932 10.2518L21.6967 8.5517L20.281 9.58034ZM21.5162 12.7195L20.281 14.4197L21.6967 15.4483L22.932 13.7482L21.5162 12.7195ZM19.7495 15.7026L19.4208 17.7782L21.1493 18.052L21.478 15.9764L19.7495 15.7026ZM18.4033 18.7958L16.3276 19.1245L16.6014 20.853L18.677 20.5243L18.4033 18.7958ZM15.0447 19.656L13.3445 20.8912L14.3732 22.307L16.0733 21.0717L15.0447 19.656ZM11.9055 20.8912L10.2053 19.656L9.1767 21.0717L10.8768 22.307L11.9055 20.8912ZM8.92238 19.1245L6.84675 18.7958L6.57301 20.5243L8.64865 20.853L8.92238 19.1245ZM5.82919 17.7783L5.50047 15.7026L3.77201 15.9764L4.10073 18.052L5.82919 17.7783ZM4.96905 14.4197L3.73379 12.7195L2.31803 13.7482L3.55328 15.4483L4.96905 14.4197ZM3.73379 11.2805L4.96905 9.58034L3.55328 8.5517L2.31803 10.2518L3.73379 11.2805ZM5.50047 8.29738L5.82918 6.22175L4.10073 5.94801L3.77201 8.02365L5.50047 8.29738ZM6.84675 5.20419L8.92238 4.87547L8.64865 3.14701L6.57301 3.47573L6.84675 5.20419ZM10.2053 4.34405L11.9055 3.10879L10.8768 1.69303L9.1767 2.92828L10.2053 4.34405ZM8.92238 4.87547C9.38598 4.80205 9.82561 4.61994 10.2053 4.34405L9.1767 2.92828C9.02041 3.04184 8.83946 3.11679 8.64865 3.14701L8.92238 4.87547ZM5.82918 6.22175C5.91214 5.69795 6.32295 5.28714 6.84675 5.20419L6.57301 3.47573C5.30038 3.67727 4.30227 4.67538 4.10073 5.94801L5.82918 6.22175ZM4.96905 9.58034C5.24494 9.20061 5.42705 8.76098 5.50047 8.29738L3.77201 8.02365C3.74179 8.21446 3.66684 8.39541 3.55328 8.5517L4.96905 9.58034ZM3.73379 12.7195C3.42207 12.2905 3.42207 11.7095 3.73379 11.2805L2.31803 10.2518C1.56066 11.2942 1.56066 12.7058 2.31803 13.7482L3.73379 12.7195ZM5.50047 15.7026C5.42705 15.239 5.24494 14.7994 4.96905 14.4197L3.55328 15.4483C3.66684 15.6046 3.74179 15.7855 3.77201 15.9764L5.50047 15.7026ZM6.84675 18.7958C6.32295 18.7129 5.91214 18.3021 5.82919 17.7783L4.10073 18.052C4.30227 19.3246 5.30038 20.3227 6.57301 20.5243L6.84675 18.7958ZM10.2053 19.656C9.82561 19.3801 9.38598 19.198 8.92238 19.1245L8.64865 20.853C8.83946 20.8832 9.02041 20.9582 9.1767 21.0717L10.2053 19.656ZM13.3445 20.8912C12.9155 21.2029 12.3345 21.2029 11.9055 20.8912L10.8768 22.307C11.9192 23.0643 13.3308 23.0643 14.3732 22.307L13.3445 20.8912ZM16.3276 19.1245C15.864 19.198 15.4244 19.3801 15.0447 19.656L16.0733 21.0717C16.2296 20.9582 16.4105 20.8832 16.6014 20.853L16.3276 19.1245ZM19.4208 17.7782C19.3379 18.3021 18.9271 18.7129 18.4033 18.7958L18.677 20.5243C19.9496 20.3227 20.9477 19.3246 21.1493 18.052L19.4208 17.7782ZM20.281 14.4197C20.0051 14.7994 19.823 15.239 19.7495 15.7026L21.478 15.9764C21.5082 15.7855 21.5832 15.6046 21.6967 15.4483L20.281 14.4197ZM21.5162 11.2805C21.8279 11.7095 21.8279 12.2905 21.5162 12.7195L22.932 13.7482C23.6893 12.7058 23.6893 11.2942 22.932 10.2518L21.5162 11.2805ZM19.7495 8.29738C19.823 8.76098 20.0051 9.20061 20.281 9.58034L21.6967 8.5517C21.5832 8.39541 21.5082 8.21446 21.478 8.02365L19.7495 8.29738ZM18.4032 5.20418C18.9271 5.28714 19.3379 5.69795 19.4208 6.22175L21.1493 5.94801C20.9477 4.67538 19.9496 3.67727 18.677 3.47573L18.4032 5.20418ZM15.0447 4.34405C15.4244 4.61994 15.864 4.80205 16.3276 4.87547L16.6014 3.14701C16.4105 3.11679 16.2296 3.04184 16.0733 2.92828L15.0447 4.34405ZM14.3732 1.69303C13.3308 0.935657 11.9192 0.935658 10.8768 1.69303L11.9055 3.10879C12.3345 2.79707 12.9155 2.79707 13.3445 3.10879L14.3732 1.69303ZM9.625 9.875H9.635V8.125H9.625V9.875ZM9.25 9C9.25 8.79289 9.41789 8.625 9.625 8.625V10.375C10.3844 10.375 11 9.75939 11 9H9.25ZM9.625 8.625C9.83211 8.625 10 8.79289 10 9H8.25C8.25 9.75939 8.86561 10.375 9.625 10.375V8.625ZM10 9C10 9.20711 9.83211 9.375 9.625 9.375V7.625C8.86561 7.625 8.25 8.24061 8.25 9H10ZM9.625 9.375C9.41789 9.375 9.25 9.20711 9.25 9H11C11 8.24061 10.3844 7.625 9.625 7.625V9.375ZM15.625 15.875H15.635V14.125H15.625V15.875ZM15.25 15C15.25 14.7929 15.4179 14.625 15.625 14.625V16.375C16.3844 16.375 17 15.7594 17 15H15.25ZM15.625 14.625C15.8321 14.625 16 14.7929 16 15H14.25C14.25 15.7594 14.8656 16.375 15.625 16.375V14.625ZM16 15C16 15.2071 15.8321 15.375 15.625 15.375V13.625C14.8656 13.625 14.25 14.2406 14.25 15H16ZM15.625 15.375C15.4179 15.375 15.25 15.2071 15.25 15H17C17 14.2406 16.3844 13.625 15.625 13.625V15.375ZM16.0063 7.38128L8.00628 15.3813L9.24372 16.6187L17.2437 8.61872L16.0063 7.38128Z" fill="#999999"/>
</g>
</svg>
