<svg width="20" height="21" viewBox="0 0 20 21" fill="none" xmlns="http://www.w3.org/2000/svg">
<g id="earn-points">
<g id="merged">
<path fill-rule="evenodd" clip-rule="evenodd" d="M14.2806 2.67204C13.8614 1.89024 12.7306 1.89024 12.3114 2.67204L11.6605 3.88594L10.302 4.07009C9.39173 4.19348 8.99142 5.32129 9.69081 5.9705L10.6596 6.86974L10.4253 8.14312C10.256 9.06313 11.2163 9.71759 12.0105 9.33418L13.296 8.71359L14.5815 9.33418C15.3757 9.71759 16.336 9.06313 16.1667 8.14312L15.9324 6.86974L16.9012 5.9705C17.6006 5.32129 17.2003 4.19348 16.29 4.07009L14.9315 3.88594L14.2806 2.67204ZM12.7285 4.53943L13.296 3.48099L13.8635 4.53943C14.0335 4.85646 14.3457 5.06796 14.697 5.11558L15.8207 5.26791L15.0223 6.00898C14.7479 6.26372 14.6194 6.64111 14.6878 7.01315L14.8866 8.09343L13.7844 7.56133C13.4761 7.41251 13.1159 7.41251 12.8076 7.56134L11.7054 8.09343L11.9042 7.01315C11.9726 6.64111 11.8441 6.26373 11.5696 6.00898L10.7713 5.26791L11.895 5.11558C12.2463 5.06796 12.5585 4.85646 12.7285 4.53943Z" fill="black"/>
<path fill-rule="evenodd" clip-rule="evenodd" d="M8.38016 9.87962C7.51306 9.76177 6.73526 10.1025 6.1125 10.4169C5.9634 10.4921 5.82337 10.5654 5.69013 10.6351C5.30098 10.8386 4.96957 11.0119 4.63944 11.1169C4.23464 10.6802 3.5792 10.5134 2.98838 10.7692L2.03614 11.1814C1.37694 11.4667 1.02345 12.1897 1.20431 12.8853L2.44691 17.6644C2.67213 18.5306 3.61739 18.9905 4.438 18.6352L5.39023 18.223C5.87178 18.0146 6.1902 17.5726 6.25634 17.0783C7.06936 17.1965 7.77229 17.3747 8.44043 17.5473L8.53467 17.5717C9.35735 17.7845 10.1724 17.9954 11.034 18.0182C12.8968 18.0676 14.8211 17.2459 17.8803 14.4899C18.8202 13.6432 19.0938 12.6028 18.6045 11.7957C18.1398 11.0292 17.1347 10.7751 16.2687 11.2371C15.9689 11.397 15.6373 11.5974 15.3013 11.8005C15.1804 11.8736 15.0588 11.9471 14.938 12.0191C14.597 12.2225 14.2472 12.4236 13.8891 12.6042C13.895 12.469 13.8868 12.3327 13.8637 12.1975C13.7746 11.6764 13.4696 11.1931 12.953 10.8622C12.4442 10.5364 11.7649 10.3785 10.9354 10.4148C10.3113 10.442 10.0581 10.3653 9.81107 10.2737C9.76753 10.2575 9.7224 10.24 9.67485 10.2215C9.38964 10.1108 9.01711 9.96619 8.38016 9.87962ZM6.03207 15.7883L5.11813 12.2733C5.55633 12.1202 5.97953 11.8972 6.35005 11.7021C6.46397 11.6421 6.57293 11.5847 6.6758 11.5327C7.28515 11.2251 7.75735 11.0565 8.21182 11.1182C8.69748 11.1842 8.94613 11.2803 9.21717 11.385C9.26878 11.4049 9.32124 11.4252 9.37627 11.4456C9.77798 11.5946 10.1974 11.6982 10.9899 11.6636C11.6403 11.6352 12.0446 11.7649 12.2789 11.9149C12.5054 12.0599 12.6029 12.2407 12.6315 12.408C12.6937 12.7718 12.4528 13.1697 12.0132 13.2411C11.9874 13.2453 11.9622 13.251 11.9377 13.2581C11.4603 13.3151 10.9899 13.2783 10.5287 13.1143C10.2035 12.9987 9.84607 13.1686 9.73043 13.4938C9.61479 13.819 9.7847 14.1764 10.1099 14.2921C11.5005 14.7865 12.8525 14.4476 13.9884 13.941C14.5594 13.6863 15.097 13.3796 15.5781 13.0928C15.7173 13.0098 15.8499 12.9297 15.9768 12.853C16.3012 12.6569 16.5892 12.4828 16.857 12.34C17.1921 12.1612 17.4462 12.2962 17.5356 12.4437C17.6004 12.5505 17.723 12.9491 17.0437 13.5612C14.0612 16.2481 12.4438 16.8052 11.0671 16.7687C10.35 16.7497 9.65773 16.5708 8.78334 16.3449L8.7531 16.3371C7.98065 16.1375 7.09872 15.9131 6.03207 15.7883ZM3.76969 12.0546C3.73775 11.9317 3.60292 11.8652 3.48496 11.9163L2.53272 12.3285C2.43836 12.3694 2.38849 12.4723 2.41409 12.5708L3.65669 17.3498C3.68863 17.4727 3.82346 17.5392 3.94142 17.4881L4.89366 17.0759C4.98802 17.035 5.03789 16.9321 5.01229 16.8336L3.76969 12.0546Z" fill="black"/>
</g>
</g>
</svg>
