<svg width="21" height="20" viewBox="0 0 21 20" fill="none" xmlns="http://www.w3.org/2000/svg">
<g id="Email">
<path id="Icon" fill-rule="evenodd" clip-rule="evenodd" d="M9.53905 1.75H9.56689H11.2336H11.2614C12.4027 1.75 13.2975 1.74999 14.0204 1.79932C14.7559 1.8495 15.3679 1.95323 15.934 2.18769C17.3429 2.77128 18.4623 3.89066 19.0459 5.29957C19.2803 5.86562 19.3841 6.4777 19.4342 7.21317C19.4836 7.93603 19.4836 8.83087 19.4836 9.97215V10V10.0278C19.4836 11.1691 19.4836 12.064 19.4342 12.7868C19.3841 13.5223 19.2803 14.1344 19.0459 14.7004C18.4623 16.1093 17.3429 17.2287 15.934 17.8123C15.3679 18.0468 14.7559 18.1505 14.0204 18.2007C13.2975 18.25 12.4027 18.25 11.2614 18.25H11.2336H9.5669H9.53905C8.39776 18.25 7.50293 18.25 6.78006 18.2007C6.04459 18.1505 5.43251 18.0468 4.86646 17.8123C3.45755 17.2287 2.33818 16.1093 1.75459 14.7004C1.52012 14.1344 1.41639 13.5223 1.36621 12.7868C1.31689 12.064 1.31689 11.1691 1.31689 10.0278V10V9.97216C1.31689 8.83087 1.31689 7.93604 1.36621 7.21317C1.41639 6.4777 1.52012 5.86562 1.75459 5.29957C2.33818 3.89066 3.45755 2.77128 4.86646 2.18769C5.43251 1.95323 6.04459 1.8495 6.78006 1.79932C7.50293 1.74999 8.39776 1.75 9.53905 1.75ZM5.81625 6.04263C5.47161 5.81286 5.00595 5.906 4.77619 6.25064C4.54643 6.59529 4.63956 7.06094 4.9842 7.2907L5.81754 7.84626L5.87583 7.88512L5.87584 7.88513C6.6263 8.3855 7.07227 8.68284 7.52594 8.89635C9.34637 9.75308 11.4541 9.75308 13.2745 8.89635C13.7282 8.68284 14.1742 8.3855 14.9246 7.88512L14.9829 7.84626L15.8163 7.2907C16.1609 7.06094 16.254 6.59529 16.0243 6.25064C15.7945 5.906 15.3288 5.81286 14.9842 6.04263L14.1509 6.59818C13.3249 7.14883 12.9762 7.37895 12.6358 7.53914C11.2199 8.20548 9.58056 8.20548 8.16467 7.53914C7.82429 7.37895 7.47555 7.14883 6.64959 6.59818L5.81625 6.04263Z" fill="#525252"/>
</g>
</svg>
