<svg width="17" height="18" viewBox="0 0 17 18" fill="none" xmlns="http://www.w3.org/2000/svg">
<g id="fantasy-camera-360" clip-path="url(#clip0_14384_1830)">
<path id="merged" fill-rule="evenodd" clip-rule="evenodd" d="M5.77773 3.20918C6.13455 2.45587 6.89349 1.97559 7.72704 1.97559H8.93065C9.7642 1.97559 10.5231 2.45587 10.88 3.20918L11.1075 3.68946C11.1122 3.69942 11.1222 3.70576 11.1332 3.70576H11.5948C13.0705 3.70576 14.2055 5.01021 14.0016 6.4717L13.4425 10.4783C13.275 11.679 12.2481 12.5726 11.0358 12.5726H5.62194C4.40958 12.5726 3.38269 11.679 3.21514 10.4783L2.65608 6.4717C2.45215 5.01021 3.58722 3.70576 5.06287 3.70576H5.52448C5.53549 3.70576 5.54552 3.69942 5.55024 3.68946L5.77773 3.20918ZM7.72704 3.0113C7.29375 3.0113 6.89923 3.26096 6.71375 3.65255L6.48625 4.13283C6.3102 4.50451 5.93575 4.74148 5.52448 4.74148H5.06287C4.21614 4.74148 3.56484 5.48997 3.68186 6.32857L4.24092 10.3352C4.33705 11.0242 4.92629 11.5369 5.62194 11.5369H11.0358C11.7314 11.5369 12.3206 11.0242 12.4168 10.3352L12.9758 6.32857C13.0929 5.48997 12.4416 4.74148 11.5948 4.74148H11.1332C10.7219 4.74148 10.3475 4.50451 10.1714 4.13283L9.94394 3.65255C9.75846 3.26096 9.36395 3.0113 8.93065 3.0113H7.72704Z" fill="white"/>
<path id="merged_2" fill-rule="evenodd" clip-rule="evenodd" d="M5.89844 7.99652C5.89844 6.6544 6.98643 5.56641 8.32855 5.56641C9.67066 5.56641 10.7587 6.6544 10.7587 7.99652C10.7587 9.33863 9.67066 10.4266 8.32855 10.4266C6.98643 10.4266 5.89844 9.33863 5.89844 7.99652ZM8.32855 6.60212C7.55844 6.60212 6.93415 7.22641 6.93415 7.99652C6.93415 8.76662 7.55844 9.39091 8.32855 9.39091C9.09865 9.39091 9.72294 8.76662 9.72294 7.99652C9.72294 7.22641 9.09865 6.60212 8.32855 6.60212Z" fill="white"/>
<path id="merged_3" fill-rule="evenodd" clip-rule="evenodd" d="M5.98646 13.5761C6.15708 13.3466 6.48148 13.2988 6.71101 13.4695L7.87011 14.3311C8.07575 14.484 8.24936 14.7364 8.22718 15.0535C8.20501 15.3706 7.99796 15.5964 7.77305 15.7191L6.50531 16.4111C6.25427 16.5481 5.93968 16.4557 5.80266 16.2046C5.66563 15.9536 5.75807 15.639 6.00911 15.5019L6.98936 14.9669L6.09311 14.3007C5.86358 14.1301 5.81583 13.8057 5.98646 13.5761Z" fill="white"/>
<path id="merged_4" fill-rule="evenodd" clip-rule="evenodd" d="M2.41419 12.4502C1.98667 12.7072 1.94245 12.8864 1.94245 12.93C1.94245 12.9611 1.9612 13.0761 2.19493 13.2603C2.42217 13.4393 2.78429 13.6257 3.28248 13.7979C4.27331 14.1403 5.68803 14.3875 7.31699 14.461L7.2703 15.4956C5.5772 15.4192 4.05739 15.1615 2.94421 14.7768C2.3904 14.5854 1.90814 14.3528 1.55401 14.0739C1.20636 13.8 0.906738 13.4181 0.906738 12.93C0.906738 12.3098 1.38295 11.8617 1.88055 11.5625C2.40772 11.2456 3.13055 10.9877 3.96617 10.792L4.20232 11.8004C3.41914 11.9838 2.81214 12.2109 2.41419 12.4502ZM14.2445 12.4502C13.8466 12.2109 13.2396 11.9838 12.4564 11.8004L12.6925 10.792C13.5282 10.9877 14.251 11.2456 14.7782 11.5625C15.2758 11.8617 15.752 12.3098 15.752 12.93C15.752 13.3659 15.5114 13.7184 15.2168 13.9801C14.921 14.243 14.5194 14.4633 14.0612 14.6476C13.1408 15.0178 11.8791 15.2875 10.4494 15.4222C10.1646 15.449 9.91204 15.2399 9.88521 14.9552C9.85838 14.6704 10.0675 14.4179 10.3522 14.391C11.7238 14.2618 12.8787 14.0069 13.6747 13.6867C14.0747 13.5258 14.3562 13.3594 14.5289 13.2059C14.7028 13.0514 14.7163 12.9579 14.7163 12.93C14.7163 12.8864 14.672 12.7072 14.2445 12.4502Z" fill="white"/>
</g>
<defs>
<clipPath id="clip0_14384_1830">
<rect width="16.5714" height="16.5714" fill="white" transform="translate(0.043457 0.766602)"/>
</clipPath>
</defs>
</svg>
