<svg width="28" height="33" viewBox="0 0 28 33" fill="none" xmlns="http://www.w3.org/2000/svg">
<g id="Group">
<path id="Vector" d="M13.0178 0.727835L0.667065 7.28439C0.324481 7.46624 0.110352 7.82236 0.110352 8.21033V24.6686C0.110352 25.3334 0.483913 25.9417 1.07669 26.2423L13.188 32.3852C13.5745 32.5813 14.0312 32.5813 14.4176 32.3852L26.529 26.2423C27.1218 25.9417 27.4954 25.3333 27.4954 24.6686V8.21033C27.4954 7.82236 27.2812 7.46624 26.9385 7.28439L14.5879 0.727835C14.0971 0.467349 13.5087 0.467349 13.0178 0.727835Z" fill="#FDBA74"/>
<path id="Vector_2" d="M13.8032 32.5324C14.014 32.5324 14.2249 32.4834 14.418 32.3854L26.5294 26.2425C27.1222 25.9418 27.4958 25.3334 27.4958 24.6687V8.21025C27.4958 8.0389 27.452 7.87492 27.3759 7.72827L13.8032 14.9572V32.5324Z" fill="#FED7AA"/>
<path id="Vector_3" d="M13.8029 14.9573L0.230359 7.72827C0.154109 7.87492 0.110352 8.03891 0.110352 8.21025V24.6686C0.110352 25.3334 0.483913 25.9417 1.07669 26.2424L13.188 32.3853C13.3813 32.4833 13.592 32.5323 13.8028 32.5323V14.9573H13.8029Z" fill="#D97706"/>
<path id="Vector_4" d="M18.6419 2.87988L4.90576 10.195V12.5357C4.90576 12.7604 5.02967 12.9667 5.22788 13.0724L7.61503 14.3447C7.80446 14.4457 8.03311 14.3084 8.03311 14.0938V11.9092L21.7905 4.55143L18.6419 2.87988Z" fill="#E2E8F0"/>
<g id="Group_2">
<path id="Vector_5" d="M15.7817 27.8616L19.4462 26.1091C19.9154 25.8847 20.2092 25.4059 20.1969 24.886L20.1966 24.8698C20.1864 24.4409 19.7311 24.1702 19.3494 24.3662L15.7818 26.1984V27.8616H15.7817Z" fill="#111827"/>
<path id="Vector_6" d="M15.7817 30.4174L17.794 29.4826C18.2705 29.2611 18.5706 28.7785 18.5582 28.2532C18.548 27.8228 18.09 27.5522 17.7081 27.7511L15.7817 28.754V30.4174Z" fill="#111827"/>
</g>
<path id="Vector_7" d="M4.90576 10.2188V12.5359C4.90576 12.7606 5.02967 12.9669 5.22788 13.0726L7.61503 14.3449C7.80446 14.4459 8.03311 14.3086 8.03311 14.094V11.9094L8.05639 11.8969C7.24786 11.4663 5.9346 10.7667 4.90576 10.2188Z" fill="#94A3B8"/>
</g>
</svg>
