<svg width="25" height="24" viewBox="0 0 25 24" fill="none" xmlns="http://www.w3.org/2000/svg">
<g id="home-polygon-2">
<g id="filled">
<path d="M9.59119 2.23379C11.1126 1.16882 13.1375 1.16882 14.6589 2.23378L20.9902 6.66569C22.4774 7.70671 23.1765 9.55142 22.7528 11.3166L20.8663 19.1772C20.3895 21.1639 18.6129 22.5646 16.5698 22.5646H15.575V18.8137C15.575 17.0188 14.1199 15.5637 12.325 15.5637C10.53 15.5637 9.07495 17.0188 9.07495 18.8137V22.5646H7.68026C5.6372 22.5646 3.86055 21.1639 3.38376 19.1772L1.49724 11.3166C1.07359 9.55142 1.77272 7.70671 3.25989 6.66569L9.59119 2.23379Z" fill="#E80404"/>
<path d="M10.575 22.5646H14.075V18.8137C14.075 17.8472 13.2914 17.0637 12.325 17.0637C11.3585 17.0637 10.575 17.8472 10.575 18.8137V22.5646Z" fill="#E80404"/>
</g>
</g>
</svg>
