<svg width="30" height="30" viewBox="0 0 30 30" fill="none" xmlns="http://www.w3.org/2000/svg">
<g id="honor-star-2">
<path id="shaped-3" opacity="0.4" fill-rule="evenodd" clip-rule="evenodd" d="M15 7.8125C9.30456 7.8125 4.6875 12.4296 4.6875 18.125C4.6875 23.8204 9.30456 28.4375 15 28.4375C20.6954 28.4375 25.3125 23.8204 25.3125 18.125C25.3125 12.4296 20.6954 7.8125 15 7.8125Z" fill="#FF9500"/>
<path id="shaped-2" fill-rule="evenodd" clip-rule="evenodd" d="M16.2019 13.4647C15.691 12.5118 14.3099 12.5118 13.7989 13.4647L12.7721 15.3798C12.7584 15.4053 12.7293 15.4285 12.6891 15.434L10.5513 15.7238C9.43769 15.8747 8.95683 17.2481 9.80524 18.0357L11.3479 19.4676C11.3729 19.4908 11.3807 19.5204 11.376 19.5459L11.0016 21.5802C10.7967 22.6939 11.9618 23.4993 12.9363 23.0288L14.9471 22.0581C14.9803 22.042 15.0205 22.042 15.0537 22.0581L17.0645 23.0288C18.0391 23.4993 19.2041 22.6939 18.9992 21.5802L18.6248 19.5459C18.6201 19.5204 18.6279 19.4908 18.6529 19.4676L20.1956 18.0357C21.044 17.2482 20.5631 15.8747 19.4495 15.7238L17.3118 15.434C17.2715 15.4285 17.2424 15.4053 17.2287 15.3798L16.2019 13.4647Z" fill="#FF9500"/>
<path id="shaped-1" d="M6.21553 5.86544C5.14277 3.50538 7.32617 0.971479 9.81886 1.68367L14.6801 3.07261C14.8894 3.13241 15.1113 3.13241 15.3205 3.07261L20.1818 1.68367C22.6745 0.97148 24.8579 3.50538 23.7852 5.86544L23.7811 5.87446L21.7139 10.2973C19.9099 8.74876 17.5645 7.81305 15.0005 7.81305C12.4364 7.81305 10.0909 8.74881 8.28688 10.2975L6.21553 5.86544Z" fill="#FF9500"/>
</g>
</svg>
