<svg width="24" height="24" viewBox="0 0 24 24" fill="none" xmlns="http://www.w3.org/2000/svg">
<g id="Info">
<g id="merged">
<path d="M13.0303 7.21967C12.7375 6.92678 12.2626 6.92678 11.9697 7.21967C11.6768 7.51256 11.6768 7.98744 11.9697 8.28033L11.9797 8.29033C12.2726 8.58322 12.7475 8.58322 13.0403 8.29033C13.3332 7.99744 13.3332 7.52256 13.0403 7.22967L13.0303 7.21967Z" fill="black"/>
<path d="M13.2398 10.3733C13.2861 10.0955 13.1729 9.81518 12.9466 9.64748C12.7204 9.47977 12.4192 9.45295 12.1669 9.57803L11.1582 10.078C10.7871 10.262 10.6354 10.712 10.8194 11.0831C10.9565 11.3598 11.2415 11.5145 11.5315 11.4991L10.7602 16.1267C10.7138 16.405 10.8275 16.6857 11.0544 16.8533C11.2814 17.0209 11.5831 17.047 11.8354 16.9208L12.8354 16.4208C13.2059 16.2356 13.3561 15.7851 13.1708 15.4146C13.0345 15.142 12.7546 14.9887 12.4686 15.0005L13.2398 10.3733Z" fill="black"/>
<path fill-rule="evenodd" clip-rule="evenodd" d="M1.25 12C1.25 6.06294 6.06294 1.25 12 1.25C17.9371 1.25 22.75 6.06294 22.75 12C22.75 17.9371 17.9371 22.75 12 22.75C6.06294 22.75 1.25 17.9371 1.25 12ZM12 2.75C6.89137 2.75 2.75 6.89137 2.75 12C2.75 17.1086 6.89137 21.25 12 21.25C17.1086 21.25 21.25 17.1086 21.25 12C21.25 6.89137 17.1086 2.75 12 2.75Z" fill="black"/>
</g>
</g>
</svg>
