<svg width="24" height="24" viewBox="0 0 24 24" fill="none" xmlns="http://www.w3.org/2000/svg">
<g id="Info">
<path id="merged" fill-rule="evenodd" clip-rule="evenodd" d="M1.3125 6.14062C1.3125 3.43961 3.50211 1.25 6.20313 1.25H17.7969C20.4979 1.25 22.6875 3.43961 22.6875 6.14062V14.4219C22.6875 17.1229 20.4979 19.3125 17.7969 19.3125H17.0554C15.8863 19.3125 14.7997 19.9147 14.1801 20.9061L13.5723 21.8785C12.8461 23.0405 11.1539 23.0405 10.4277 21.8785L9.8199 20.9061C9.2003 19.9147 8.11371 19.3125 6.94465 19.3125H6.20313C3.50211 19.3125 1.3125 17.1229 1.3125 14.4219V6.14062ZM6.20313 2.75C4.33053 2.75 2.8125 4.26803 2.8125 6.14062V14.4219C2.8125 16.2945 4.33053 17.8125 6.20313 17.8125H6.94465C8.63089 17.8125 10.1982 18.6812 11.0919 20.1111L11.6997 21.0835C11.8384 21.3055 12.1616 21.3055 12.3003 21.0835L12.9081 20.1111C13.8018 18.6812 15.3691 17.8125 17.0554 17.8125H17.7969C19.6695 17.8125 21.1875 16.2945 21.1875 14.4219V6.14062C21.1875 4.26803 19.6695 2.75 17.7969 2.75H6.20313ZM11.245 15.25C11.245 14.8358 11.5808 14.5 11.995 14.5H12.005C12.4192 14.5 12.755 14.8358 12.755 15.25C12.755 15.6642 12.4192 16 12.005 16H11.995C11.5808 16 11.245 15.6642 11.245 15.25ZM12.7527 6.751C12.7532 6.33679 12.4179 6.00055 12.0037 6C11.5895 5.99945 11.2532 6.33478 11.2527 6.749L11.245 12.499C11.2444 12.9132 11.5798 13.2494 11.994 13.25C12.4082 13.2506 12.7444 12.9152 12.745 12.501L12.7527 6.751Z" fill="black"/>
</g>
</svg>
