<svg width="45" height="44" viewBox="0 0 45 44" fill="none" xmlns="http://www.w3.org/2000/svg">
<path d="M17.5184 27.9447L12.8484 11.7701M40.2833 29.3046L23.384 32.8666M9.62902 6.59199L4.68604 5.51562" stroke="white" stroke-width="3.15837" stroke-linecap="round" stroke-linejoin="round"/>
<path d="M25.5266 26.7095L26.2398 27.5832C26.4508 27.8416 26.7872 27.9626 27.1145 27.8976L33.1369 26.7008C36.7862 25.9757 39.0213 22.2693 37.9599 18.7033L36.0642 12.3339L35.1961 9.39656C34.4472 6.86256 31.8442 5.3596 29.2752 5.97783L21.7183 7.79638C19.0046 8.44942 17.3629 11.211 18.0857 13.907L20.7272 22.8497" stroke="white" stroke-width="3.15837" stroke-linecap="round" stroke-linejoin="round"/>
<path d="M25.7227 7.80371L27.1551 12.6531" stroke="white" stroke-width="3.15837" stroke-linecap="round" stroke-linejoin="round"/>
<path d="M23.3831 32.8666C23.6437 35.8455 21.4402 38.4716 18.4613 38.7322C15.4824 38.9929 12.8563 36.7893 12.5956 33.8104C12.335 30.8315 14.5386 28.2054 17.5175 27.9448C20.4964 27.6841 23.1225 29.8877 23.3831 32.8666Z" stroke="white" stroke-width="3.15837"/>
</svg>
