<svg width="83" height="84" viewBox="0 0 83 84" fill="none" xmlns="http://www.w3.org/2000/svg">
<g id="L-cart-1">
<path id="shaped-4" fill-rule="evenodd" clip-rule="evenodd" d="M5.17358 9.84293C5.47775 8.44611 6.85667 7.56033 8.25349 7.8645L17.7059 9.92282C20.8027 10.5972 23.2805 12.915 24.1596 15.96L34.7287 52.5664C35.1252 53.9399 34.3333 55.3747 32.9598 55.7713C31.5864 56.1678 30.1515 55.3759 29.7549 54.0024L19.1859 17.396C18.8342 16.178 17.8431 15.2509 16.6044 14.9812L7.15201 12.9228C5.75519 12.6187 4.86942 11.2397 5.17358 9.84293ZM78.3075 55.3511C78.6024 56.7499 77.7074 58.1229 76.3086 58.4178L43.9924 65.2292C42.5936 65.524 41.2206 64.629 40.9258 63.2302C40.6309 61.8314 41.5259 60.4584 42.9247 60.1636L75.2409 53.3522C76.6397 53.0574 78.0127 53.9523 78.3075 55.3511Z" fill="#E80404"/>
<path id="shaped-3" opacity="0.4" fill-rule="evenodd" clip-rule="evenodd" d="M68.5292 17.083C66.7066 10.9157 60.3715 7.25777 54.119 8.76242L39.6681 12.24C33.0634 13.8294 29.0678 20.5506 30.8269 27.1121L30.8447 27.1751L36.323 45.7217C36.6854 46.9485 37.5735 47.9512 38.7475 48.4591L41.9672 49.8519C43.3614 50.455 44.5905 51.384 45.5511 52.5608L46.9149 54.2314C47.9237 55.4671 49.5326 56.0452 51.0973 55.7346L62.6137 53.446C71.0876 51.7621 76.2778 43.1558 73.8131 34.8752L70.1879 22.6952L68.5292 17.083Z" fill="#E80404"/>
<path id="shaped-2" d="M49.2534 9.93066L50.4141 14.0505L53.1487 23.3082C53.5536 24.6792 52.7705 26.1189 51.3995 26.5239C50.0285 26.9289 48.5888 26.1458 48.1838 24.7748L45.4354 15.4702L44.2163 11.1428L49.2534 9.93066Z" fill="#E80404"/>
<path id="shaped-1" fill-rule="evenodd" clip-rule="evenodd" d="M40.8779 62.9244C40.5042 58.652 36.7377 55.4916 32.4654 55.8654C28.193 56.2392 25.0326 60.0056 25.4064 64.278C25.7802 68.5503 29.5466 71.7107 33.819 71.3369C38.0913 70.9632 41.2517 67.1967 40.8779 62.9244ZM32.0142 50.7082C39.1348 50.0853 45.4122 55.3526 46.0351 62.4732C46.6581 69.5938 41.3907 75.8711 34.2702 76.4941C27.1496 77.1171 20.8722 71.8497 20.2492 64.7292C19.6263 57.6086 24.8936 51.3312 32.0142 50.7082Z" fill="#E80404"/>
</g>
</svg>
