<svg width="16" height="16" viewBox="0 0 16 16" fill="none" xmlns="http://www.w3.org/2000/svg">
<g id="live-direction">
<path id="merged" fill-rule="evenodd" clip-rule="evenodd" d="M2.64544 8.2234C2.64544 5.3151 5.00308 2.95745 7.91139 2.95745C10.8197 2.95745 13.1773 5.3151 13.1773 8.2234C13.1773 9.05382 12.9855 9.83806 12.6441 10.5354C12.5278 10.7729 12.6261 11.0596 12.8636 11.1759C13.101 11.2921 13.3878 11.1939 13.504 10.9564C13.9082 10.1308 14.1348 9.20291 14.1348 8.2234C14.1348 4.78631 11.3485 2 7.91139 2C4.4743 2 1.68799 4.78631 1.68799 8.2234C1.68799 9.20292 1.91463 10.1309 2.31876 10.9564C2.43501 11.1939 2.72175 11.2922 2.95921 11.1759C3.19668 11.0597 3.29495 10.7729 3.1787 10.5355C2.83731 9.83807 2.64544 9.05383 2.64544 8.2234ZM7.91139 5.51064C6.40788 5.51064 5.19863 6.71383 5.19863 8.18629C5.19863 8.34316 5.21226 8.49651 5.23832 8.64534C5.28392 8.90578 5.10976 9.15386 4.84933 9.19945C4.5889 9.24505 4.34081 9.07089 4.29522 8.81046C4.25966 8.60736 4.24118 8.39877 4.24118 8.18629C4.24118 6.17452 5.88969 4.55319 7.91139 4.55319C9.9331 4.55319 11.5816 6.17452 11.5816 8.18629C11.5816 8.45305 11.5525 8.71363 11.497 8.96488C11.44 9.22306 11.1846 9.38616 10.9264 9.32918C10.6682 9.27219 10.5051 9.0167 10.5621 8.75853C10.6027 8.57458 10.6242 8.38318 10.6242 8.18629C10.6242 6.71383 9.41491 5.51064 7.91139 5.51064ZM6.89023 8.48042C7.4542 7.91645 8.36858 7.91645 8.93255 8.48042L12.4314 11.9792C13.4417 12.9896 12.5281 14.6967 11.127 14.4165L8.19617 13.8303C8.00818 13.7927 7.8146 13.7927 7.62661 13.8303L4.69579 14.4165C3.29469 14.6967 2.38106 12.9896 3.39141 11.9792L6.89023 8.48042ZM8.25554 9.15744C8.06547 8.96737 7.75731 8.96737 7.56724 9.15744L4.06843 12.6563C3.72793 12.9968 4.03583 13.5721 4.50802 13.4776L7.43884 12.8915C7.75078 12.8291 8.072 12.8291 8.38395 12.8915L11.3148 13.4776C11.787 13.5721 12.0949 12.9968 11.7544 12.6563L8.25554 9.15744Z" fill="white"/>
</g>
</svg>
