<svg width="236" height="275" viewBox="0 0 236 275" fill="none" xmlns="http://www.w3.org/2000/svg">
<g opacity="0.37">
<path d="M235.776 56.1058C259.195 67.6546 276.269 85.4627 286.361 110.046C296.714 135.247 297.565 161.121 288.69 187.341C279.288 215.129 261.229 235.518 235.928 249.608C216.707 260.316 197.708 271.455 178.616 282.408C168.912 287.968 159.233 293.626 149.499 299.151C142.131 303.338 134.435 303.614 126.853 300.681C121.242 298.511 115.758 295.955 110.689 292.608C104.028 288.211 100.233 281.941 99.0254 273.928C97.0382 260.734 95.0404 247.551 93.0318 234.378C90.1169 215.229 87.322 196.053 84.2236 176.94C81.435 159.803 81.6998 142.803 86.6711 125.877C92.7851 104.952 103.949 87.2807 120.162 72.8627C130.983 63.2362 143.187 56.0057 156.726 51.4677C179.337 43.8898 201.898 43.5693 224.232 51.248C225.864 51.8096 227.543 52.2485 229.121 52.9243C231.371 53.895 233.56 55.0367 235.776 56.1058ZM140.07 131.79C135.652 141.869 134.204 153 135.898 163.874C139.441 187.373 143.033 210.865 146.673 234.348C147.425 239.273 147.567 239.325 151.866 236.854C171.921 225.314 191.983 213.789 212.054 202.279C224.792 194.978 233.887 184.595 238.77 170.46C249.206 140.255 232.314 110.235 205.909 101.68C181.826 93.8952 153.395 104.716 140.07 131.79Z" fill="url(#paint0_linear_12969_23225)"/>
<path d="M146.571 137.757C146.315 138.206 146.128 138.692 146.017 139.197C145.937 139.538 145.967 139.895 146.103 140.218C146.238 140.541 146.472 140.813 146.771 140.995C147.847 141.702 148.612 141.55 149.375 140.455C149.442 140.364 149.501 140.269 149.552 140.168C149.939 139.365 150.457 138.629 150.895 137.854C151.863 136.138 152.92 134.472 154.062 132.866C157.151 128.451 160.987 124.608 165.397 121.511C170.125 118.252 175.425 115.912 181.018 114.611C181.594 114.462 182.154 114.335 182.719 114.181C183.077 114.09 183.411 113.926 183.703 113.7C184.031 113.452 184.275 113.109 184.402 112.718C184.53 112.327 184.535 111.907 184.417 111.513C184.325 111.139 184.109 110.808 183.802 110.575C183.496 110.341 183.119 110.22 182.734 110.232C182.334 110.232 181.935 110.266 181.541 110.335C180.063 110.583 178.605 110.943 177.181 111.41C171.531 113.114 166.243 115.842 161.58 119.46C155.219 124.41 150.388 130.653 146.571 137.757Z" fill="url(#paint1_linear_12969_23225)"/>
<path d="M189.132 109.427C188.897 109.296 188.631 109.233 188.363 109.245C188.094 109.256 187.834 109.341 187.612 109.491C187.291 109.678 187.017 109.935 186.81 110.244C186.603 110.552 186.468 110.903 186.416 111.27C186.336 111.685 186.404 112.116 186.608 112.486C186.812 112.857 187.139 113.144 187.533 113.299C187.893 113.484 188.306 113.536 188.701 113.447C189.096 113.357 189.446 113.13 189.69 112.807C189.817 112.671 189.93 112.522 190.028 112.364C190.721 111.265 190.401 110.061 189.132 109.427Z" fill="url(#paint2_linear_12969_23225)"/>
<path d="M172.397 180.97C186.647 187.847 203.954 181.493 211.055 166.779C218.155 152.064 212.36 134.562 198.11 127.686C183.861 120.809 166.553 127.163 159.452 141.877C152.352 156.592 158.148 174.094 172.397 180.97Z" fill="url(#paint3_linear_12969_23225)"/>
</g>
<defs>
<linearGradient id="paint0_linear_12969_23225" x1="127.768" y1="301.527" x2="213.586" y2="123.687" gradientUnits="userSpaceOnUse">
<stop stop-color="#939587"/>
<stop offset="1" stop-color="#F3F4F6"/>
</linearGradient>
<linearGradient id="paint1_linear_12969_23225" x1="127.768" y1="301.527" x2="213.586" y2="123.687" gradientUnits="userSpaceOnUse">
<stop stop-color="#939587"/>
<stop offset="1" stop-color="#F3F4F6"/>
</linearGradient>
<linearGradient id="paint2_linear_12969_23225" x1="127.768" y1="301.527" x2="213.586" y2="123.687" gradientUnits="userSpaceOnUse">
<stop stop-color="#939587"/>
<stop offset="1" stop-color="#F3F4F6"/>
</linearGradient>
<linearGradient id="paint3_linear_12969_23225" x1="127.768" y1="301.527" x2="213.586" y2="123.687" gradientUnits="userSpaceOnUse">
<stop stop-color="#939587"/>
<stop offset="1" stop-color="#F3F4F6"/>
</linearGradient>
</defs>
</svg>
