<svg width="46" height="46" viewBox="0 0 46 46" fill="none" xmlns="http://www.w3.org/2000/svg">
<path d="M1 17C1 8.16344 8.16344 1 17 1H29C37.8366 1 45 8.16344 45 17V29C45 37.8366 37.8366 45 29 45H17C8.16344 45 1 37.8366 1 29V17Z" fill="white"/>
<path d="M17 1.5H29V0.5H17V1.5ZM44.5 17V29H45.5V17H44.5ZM29 44.5H17V45.5H29V44.5ZM1.5 29V17H0.5V29H1.5ZM17 44.5C8.43959 44.5 1.5 37.5604 1.5 29H0.5C0.5 38.1127 7.8873 45.5 17 45.5V44.5ZM44.5 29C44.5 37.5604 37.5604 44.5 29 44.5V45.5C38.1127 45.5 45.5 38.1127 45.5 29H44.5ZM29 1.5C37.5604 1.5 44.5 8.43959 44.5 17H45.5C45.5 7.8873 38.1127 0.5 29 0.5V1.5ZM17 0.5C7.8873 0.5 0.5 7.8873 0.5 17H1.5C1.5 8.43959 8.43959 1.5 17 1.5V0.5Z" fill="#E7E5E4"/>
<path fill-rule="evenodd" clip-rule="evenodd" d="M14.875 21.5C14.875 17.0479 18.416 13.875 23 13.875C27.584 13.875 31.125 17.0479 31.125 21.5C31.125 25.1401 29.5099 27.7966 27.6484 29.5589C26.7144 30.4432 25.7244 31.0954 24.8614 31.5232C23.9694 31.9653 23.3008 32.1248 23 32.1248C22.6992 32.1248 22.0306 31.9653 21.1386 31.5232C20.2756 31.0954 19.2856 30.4432 18.3516 29.5589C16.4901 27.7966 14.875 25.1401 14.875 21.5ZM23 12.125C17.584 12.125 13.125 15.9521 13.125 21.5C13.125 25.7117 15.0099 28.8051 17.1484 30.8297C18.2144 31.839 19.3494 32.5895 20.3614 33.0911C21.3444 33.5784 22.3008 33.8748 23 33.8748C23.6992 33.8748 24.6556 33.5784 25.6386 33.0911C26.6506 32.5895 27.7856 31.839 28.8516 30.8297C30.9901 28.8051 32.875 25.7117 32.875 21.5C32.875 15.9521 28.416 12.125 23 12.125ZM20.875 22C20.875 20.8264 21.8264 19.875 23 19.875C24.1736 19.875 25.125 20.8264 25.125 22C25.125 23.1736 24.1736 24.125 23 24.125C21.8264 24.125 20.875 23.1736 20.875 22ZM23 18.125C20.8599 18.125 19.125 19.8599 19.125 22C19.125 24.1401 20.8599 25.875 23 25.875C25.1401 25.875 26.875 24.1401 26.875 22C26.875 19.8599 25.1401 18.125 23 18.125Z" fill="black"/>
</svg>
