<svg width="27" height="27" viewBox="0 0 27 27" fill="none" xmlns="http://www.w3.org/2000/svg">
<g id="Location">
<path id="Icon" fill-rule="evenodd" clip-rule="evenodd" d="M4.18701 11.5927C4.18701 6.62032 8.14422 3.08325 13.2485 3.08325C18.3528 3.08325 22.31 6.62032 22.31 11.5927C22.31 15.6413 20.5128 18.597 18.4432 20.5563C17.4052 21.5391 16.3046 22.2643 15.344 22.7404C14.3545 23.2309 13.6013 23.4141 13.2485 23.4141C12.8957 23.4141 12.1425 23.2309 11.153 22.7404C10.1924 22.2643 9.09184 21.5391 8.05378 20.5563C5.98424 18.597 4.18701 15.6413 4.18701 11.5927ZM13.2485 1.33325C7.31224 1.33325 2.43701 5.52457 2.43701 11.5927C2.43701 16.2129 4.50397 19.6055 6.85065 21.8272C8.0207 22.9349 9.26627 23.7584 10.3758 24.3084C11.4564 24.844 12.4973 25.1641 13.2485 25.1641C13.9997 25.1641 15.0406 24.844 16.1212 24.3084C17.2307 23.7584 18.4763 22.9349 19.6464 21.8272C21.993 19.6055 24.06 16.2129 24.06 11.5927C24.06 5.52457 19.1848 1.33325 13.2485 1.33325ZM10.8113 12.1447C10.8113 10.7987 11.9025 9.70758 13.2485 9.70758C14.5945 9.70758 15.6857 10.7987 15.6857 12.1447C15.6857 13.4908 14.5945 14.5819 13.2485 14.5819C11.9025 14.5819 10.8113 13.4908 10.8113 12.1447ZM13.2485 7.95758C10.936 7.95758 9.06134 9.83224 9.06134 12.1447C9.06134 14.4573 10.936 16.3319 13.2485 16.3319C15.561 16.3319 17.4357 14.4573 17.4357 12.1447C17.4357 9.83224 15.561 7.95758 13.2485 7.95758Z" fill="black"/>
</g>
</svg>
