<svg width="16" height="16" viewBox="0 0 16 16" fill="none" xmlns="http://www.w3.org/2000/svg">
<g id="Icon">
<path id="Icon_2" fill-rule="evenodd" clip-rule="evenodd" d="M8.00016 0.708496C8.48341 0.708496 8.87516 1.10025 8.87516 1.5835V1.93719C11.5576 2.32089 13.6794 4.44268 14.0631 7.12516H14.4168C14.9001 7.12516 15.2918 7.51691 15.2918 8.00016C15.2918 8.48341 14.9001 8.87516 14.4168 8.87516H14.0631C13.6794 11.5576 11.5576 13.6794 8.87516 14.0631V14.4168C8.87516 14.9001 8.48341 15.2918 8.00016 15.2918C7.51691 15.2918 7.12516 14.9001 7.12516 14.4168V14.0631C4.44268 13.6794 2.32089 11.5576 1.93719 8.87516H1.5835C1.10025 8.87516 0.708496 8.48341 0.708496 8.00016C0.708496 7.51691 1.10025 7.12516 1.5835 7.12516H1.93719C2.32089 4.44268 4.44268 2.32089 7.12516 1.93719V1.5835C7.12516 1.10025 7.51691 0.708496 8.00016 0.708496ZM8.00016 12.3752C10.4164 12.3752 12.3752 10.4164 12.3752 8.00016C12.3752 5.58392 10.4164 3.62516 8.00016 3.62516C5.58392 3.62516 3.62516 5.58392 3.62516 8.00016C3.62516 10.4164 5.58392 12.3752 8.00016 12.3752ZM7.12516 8.00016C7.12516 7.51691 7.51691 7.12516 8.00016 7.12516C8.48341 7.12516 8.87516 7.51691 8.87516 8.00016C8.87516 8.48341 8.48341 8.87516 8.00016 8.87516C7.51691 8.87516 7.12516 8.48341 7.12516 8.00016ZM8.00016 5.37516C6.55042 5.37516 5.37516 6.55042 5.37516 8.00016C5.37516 9.44991 6.55042 10.6252 8.00016 10.6252C9.44991 10.6252 10.6252 9.44991 10.6252 8.00016C10.6252 6.55042 9.44991 5.37516 8.00016 5.37516Z" fill="black"/>
</g>
</svg>
