<svg width="24" height="24" viewBox="0 0 24 24" fill="none" xmlns="http://www.w3.org/2000/svg">
<g id="location-favorites-2">
<path id="merged" fill-rule="evenodd" clip-rule="evenodd" d="M5.7002 9.55714C5.7002 6.08194 8.24723 3.25 12.0073 3.25C15.7674 3.25 18.3145 6.08194 18.3145 9.55714C18.3145 10.2257 18.2687 10.894 18.1823 11.5531C18.1284 11.9638 18.4177 12.3404 18.8284 12.3943C19.2391 12.4481 19.6157 12.1589 19.6695 11.7482C19.7641 11.0274 19.8145 10.2939 19.8145 9.55714C19.8145 5.30036 16.642 1.75 12.0073 1.75C7.37271 1.75 4.2002 5.30036 4.2002 9.55714C4.2002 12.7123 5.12481 15.8301 6.51877 18.1758C7.88192 20.4695 9.84163 22.25 12.0073 22.25C12.8429 22.25 13.6481 21.9805 14.3877 21.5339C14.7423 21.3198 14.8561 20.8588 14.642 20.5042C14.4279 20.1496 13.9669 20.0358 13.6123 20.2499C13.0539 20.5871 12.5139 20.75 12.0073 20.75C10.6657 20.75 9.09685 19.5778 7.80825 17.4094C6.55049 15.293 5.7002 12.4394 5.7002 9.55714ZM12.008 6.50708C10.3235 6.50708 8.95801 7.87261 8.95801 9.55708C8.95801 11.2415 10.3235 12.6071 12.008 12.6071C13.6925 12.6071 15.058 11.2415 15.058 9.55708C15.058 7.87261 13.6925 6.50708 12.008 6.50708ZM7.45801 9.55708C7.45801 7.04418 9.49511 5.00708 12.008 5.00708C14.5209 5.00708 16.558 7.04418 16.558 9.55708C16.558 12.07 14.5209 14.1071 12.008 14.1071C9.49511 14.1071 7.45801 12.07 7.45801 9.55708ZM17.5688 14.164C18.0334 13.2787 19.3008 13.2787 19.7655 14.164L20.3888 15.3515L21.6834 15.5308C22.7134 15.6734 23.1213 16.9441 22.3668 17.6596L21.4389 18.5395L21.6639 19.7886C21.8443 20.7906 20.8075 21.5714 19.8944 21.121L18.6671 20.5158L17.4399 21.121C16.5268 21.5714 15.49 20.7906 15.6704 19.7886L15.8954 18.5395L14.9675 17.6596C14.213 16.9441 14.6209 15.6734 15.6509 15.5308L16.9455 15.3515L17.5688 14.164ZM18.6671 15.2989L18.2116 16.1668C18.0256 16.5212 17.6799 16.7641 17.2834 16.819L16.3913 16.9426L17.0293 17.5475C17.3326 17.8351 17.4706 18.2561 17.3965 18.6675L17.2379 19.5482L18.1185 19.1139C18.4644 18.9433 18.8699 18.9433 19.2158 19.1139L20.0964 19.5482L19.9378 18.6675C19.8637 18.2561 20.0017 17.8351 20.305 17.5475L20.943 16.9426L20.0509 16.819C19.6543 16.7641 19.3087 16.5212 19.1227 16.1668L18.6671 15.2989Z" fill="black"/>
</g>
</svg>
