<svg width="24" height="24" viewBox="0 0 24 24" fill="none" xmlns="http://www.w3.org/2000/svg">
<path d="M2.375 11.0833C2.375 13.3929 3.29248 15.6079 4.92561 17.2411C6.55874 18.8742 8.77374 19.7917 11.0833 19.7917C13.3929 19.7917 15.6079 18.8742 17.2411 17.2411C18.8742 15.6079 19.7917 13.3929 19.7917 11.0833C19.7917 8.77374 18.8742 6.55874 17.2411 4.92561C15.6079 3.29248 13.3929 2.375 11.0833 2.375C8.77374 2.375 6.55874 3.29248 4.92561 4.92561C3.29248 6.55874 2.375 8.77374 2.375 11.0833Z" stroke="black" stroke-width="1.75" stroke-linejoin="round"/>
<path d="M15.875 18.3556C16.0256 18.536 16.1745 18.7158 16.3229 18.8949C16.901 19.5925 17.4708 20.28 18.0959 20.9587C18.8337 21.7599 19.9564 21.8538 20.7359 21.0932C20.7952 21.0353 20.8568 20.9745 20.9205 20.9107C20.9843 20.847 21.045 20.7854 21.1029 20.7261C21.8633 19.9464 21.7694 18.8235 20.9685 18.0855C20.2899 17.4602 19.6025 16.8903 18.9051 16.3122C18.7254 16.1631 18.5449 16.0136 18.3638 15.8623C17.7124 16.8528 16.8642 17.7024 15.875 18.3556Z" stroke="black" stroke-width="1.75" stroke-linejoin="round"/>
</svg>
