<svg width="46" height="30" viewBox="0 0 46 30" fill="none" xmlns="http://www.w3.org/2000/svg">
<path d="M12 0.5H34C36.8423 0.5 38.9238 0.500754 40.5166 0.714844C42.095 0.927059 43.1184 1.34103 43.8887 2.11133C44.659 2.88162 45.0729 3.90496 45.2852 5.4834C45.4992 7.07616 45.5 9.1577 45.5 12V18C45.5 20.8423 45.4992 22.9238 45.2852 24.5166C45.0862 25.9963 44.7101 26.9883 44.0293 27.7412L43.8887 27.8887C43.1184 28.659 42.095 29.0729 40.5166 29.2852C38.9238 29.4992 36.8423 29.5 34 29.5H12C9.1577 29.5 7.07616 29.4992 5.4834 29.2852C4.00373 29.0862 3.01168 28.7101 2.25879 28.0293L2.11133 27.8887C1.34103 27.1184 0.927059 26.095 0.714844 24.5166C0.500754 22.9238 0.5 20.8423 0.5 18V12C0.5 9.1577 0.500754 7.07616 0.714844 5.4834C0.927059 3.90496 1.34103 2.88162 2.11133 2.11133C2.88162 1.34103 3.90496 0.927059 5.4834 0.714844C7.07616 0.500754 9.1577 0.5 12 0.5Z" fill="#FBBF24"/>
<path d="M12 0.5H34C36.8423 0.5 38.9238 0.500754 40.5166 0.714844C42.095 0.927059 43.1184 1.34103 43.8887 2.11133C44.659 2.88162 45.0729 3.90496 45.2852 5.4834C45.4992 7.07616 45.5 9.1577 45.5 12V18C45.5 20.8423 45.4992 22.9238 45.2852 24.5166C45.0862 25.9963 44.7101 26.9883 44.0293 27.7412L43.8887 27.8887C43.1184 28.659 42.095 29.0729 40.5166 29.2852C38.9238 29.4992 36.8423 29.5 34 29.5H12C9.1577 29.5 7.07616 29.4992 5.4834 29.2852C4.00373 29.0862 3.01168 28.7101 2.25879 28.0293L2.11133 27.8887C1.34103 27.1184 0.927059 26.095 0.714844 24.5166C0.500754 22.9238 0.5 20.8423 0.5 18V12C0.5 9.1577 0.500754 7.07616 0.714844 5.4834C0.927059 3.90496 1.34103 2.88162 2.11133 2.11133C2.88162 1.34103 3.90496 0.927059 5.4834 0.714844C7.07616 0.500754 9.1577 0.5 12 0.5Z" stroke="#FCD34D"/>
<path d="M2 10C2 6.22876 2 4.34315 3.17157 3.17157C4.34315 2 6.22876 2 10 2H36C39.7712 2 41.6569 2 42.8284 3.17157C44 4.34315 44 6.22876 44 10V20C44 23.7712 44 25.6569 42.8284 26.8284C41.6569 28 39.7712 28 36 28H10C6.22876 28 4.34315 28 3.17157 26.8284C2 25.6569 2 23.7712 2 20V10Z" fill="#F59E0B"/>
<path fill-rule="evenodd" clip-rule="evenodd" d="M19.7327 19.1453L19.3326 24.4895C19.3042 24.8653 19.6383 25.1234 19.9367 24.9561C22.051 23.7717 28.6735 19.4222 32.0303 9.86224C32.1843 9.42362 31.7704 9.02808 31.4175 9.27558C29.4347 10.6643 25.1017 13.5335 22.4236 14.0807C22.4236 14.0807 24.1387 12.8891 25.1649 11.0612C25.2142 10.9734 25.2384 10.8738 25.2349 10.7732C25.2314 10.6726 25.2004 10.5748 25.1452 10.4906L21.402 5.09512C21.1802 4.77566 20.7246 4.90812 20.6448 5.31558L19.4793 11.245L14.0095 16.019C13.7355 16.2583 13.7914 16.7418 14.1081 16.8697L19.7327 19.1453ZM29.4054 17.0388C29.0589 17.5224 28.3127 18.5165 27.6239 19.1242C27.4864 19.2457 27.5047 19.4492 27.6624 19.5482L31.3029 21.8335C31.522 21.9709 31.8176 21.8078 31.781 21.5695C31.6114 20.4772 31.1237 18.2002 29.8903 17.0049C29.7528 16.872 29.5154 16.8857 29.4054 17.0388Z" fill="white"/>
</svg>
