<svg width="45" height="30" viewBox="0 0 45 30" fill="none" xmlns="http://www.w3.org/2000/svg">
<path d="M12 0.5H33C35.8423 0.5 37.9238 0.500754 39.5166 0.714844C41.095 0.927059 42.1184 1.34103 42.8887 2.11133C43.659 2.88162 44.0729 3.90496 44.2852 5.4834C44.4992 7.07616 44.5 9.1577 44.5 12V18C44.5 20.8423 44.4992 22.9238 44.2852 24.5166C44.0862 25.9963 43.7101 26.9883 43.0293 27.7412L42.8887 27.8887C42.1184 28.659 41.095 29.0729 39.5166 29.2852C37.9238 29.4992 35.8423 29.5 33 29.5H12C9.1577 29.5 7.07616 29.4992 5.4834 29.2852C4.00373 29.0862 3.01168 28.7101 2.25879 28.0293L2.11133 27.8887C1.34103 27.1184 0.927059 26.095 0.714844 24.5166C0.500754 22.9238 0.5 20.8423 0.5 18V12C0.5 9.1577 0.500754 7.07616 0.714844 5.4834C0.927059 3.90496 1.34103 2.88162 2.11133 2.11133C2.88162 1.34103 3.90496 0.927059 5.4834 0.714844C7.07616 0.500754 9.1577 0.5 12 0.5Z" fill="white"/>
<path d="M12 0.5H33C35.8423 0.5 37.9238 0.500754 39.5166 0.714844C41.095 0.927059 42.1184 1.34103 42.8887 2.11133C43.659 2.88162 44.0729 3.90496 44.2852 5.4834C44.4992 7.07616 44.5 9.1577 44.5 12V18C44.5 20.8423 44.4992 22.9238 44.2852 24.5166C44.0862 25.9963 43.7101 26.9883 43.0293 27.7412L42.8887 27.8887C42.1184 28.659 41.095 29.0729 39.5166 29.2852C37.9238 29.4992 35.8423 29.5 33 29.5H12C9.1577 29.5 7.07616 29.4992 5.4834 29.2852C4.00373 29.0862 3.01168 28.7101 2.25879 28.0293L2.11133 27.8887C1.34103 27.1184 0.927059 26.095 0.714844 24.5166C0.500754 22.9238 0.5 20.8423 0.5 18V12C0.5 9.1577 0.500754 7.07616 0.714844 5.4834C0.927059 3.90496 1.34103 2.88162 2.11133 2.11133C2.88162 1.34103 3.90496 0.927059 5.4834 0.714844C7.07616 0.500754 9.1577 0.5 12 0.5Z" stroke="#E7E5E4"/>
<path d="M19.6875 15.0001C19.6875 13.4468 20.9467 12.1876 22.5 12.1876C24.0533 12.1876 25.3125 13.4468 25.3125 15.0001C25.3125 16.5534 24.0533 17.8126 22.5 17.8126C20.9467 17.8126 19.6875 16.5534 19.6875 15.0001Z" fill="#16A34A"/>
<path fill-rule="evenodd" clip-rule="evenodd" d="M9.36519 6.93645C10.364 5.43962 13.1527 3.30747 17.6093 3.83084C18.7612 3.96611 19.7784 4.29326 20.7659 4.65981C21.0781 4.77569 21.3822 4.89332 21.6866 5.01107C22.3693 5.27515 23.0536 5.53982 23.8336 5.78658C26.0155 6.47684 28.8427 6.98359 33.4029 6.39863C34.6349 6.24059 35.9375 7.11993 35.9375 8.51029V22.0252C35.9375 22.3472 35.8633 22.7212 35.6348 23.0637C34.636 24.5605 31.8473 26.6927 27.3907 26.1693C26.2388 26.0341 25.2216 25.7069 24.2341 25.3404C23.9221 25.2245 23.6181 25.107 23.3139 24.9893C22.6312 24.7252 21.9464 24.4603 21.1664 24.2136C18.9845 23.5233 16.1573 23.0166 11.5971 23.6015C10.3651 23.7596 9.0625 22.8802 9.0625 21.4899V7.97498C9.0625 7.65295 9.13668 7.27891 9.36519 6.93645ZM13.4375 16.5626C13.9553 16.5626 14.375 16.9823 14.375 17.5001V18.4376H15.3125C15.8303 18.4376 16.25 18.8573 16.25 19.3751C16.25 19.8928 15.8303 20.3126 15.3125 20.3126H13.4375C12.9197 20.3126 12.5 19.8928 12.5 19.3751V17.5001C12.5 16.9823 12.9197 16.5626 13.4375 16.5626ZM29.6875 9.68758C29.1697 9.68758 28.75 10.1073 28.75 10.6251C28.75 11.1428 29.1697 11.5626 29.6875 11.5626H30.625V12.5001C30.625 13.0178 31.0447 13.4376 31.5625 13.4376C32.0803 13.4376 32.5 13.0178 32.5 12.5001V10.6251C32.5 10.1073 32.0803 9.68758 31.5625 9.68758H29.6875ZM22.5 10.3126C19.9112 10.3126 17.8125 12.4112 17.8125 15.0001C17.8125 17.5889 19.9112 19.6876 22.5 19.6876C25.0888 19.6876 27.1875 17.5889 27.1875 15.0001C27.1875 12.4112 25.0888 10.3126 22.5 10.3126Z" fill="#16A34A"/>
</svg>
