<svg width="20" height="21" viewBox="0 0 20 21" fill="none" xmlns="http://www.w3.org/2000/svg">
<g id="Phone">
<path id="Icon" fill-rule="evenodd" clip-rule="evenodd" d="M13.3607 13.1901L12.9303 13.6181L9.18496 17.3634C11.9197 18.9642 14.2376 19.0209 15.3642 18.9158C15.8513 18.8704 16.2748 18.6224 16.6162 18.283L17.9586 16.9482C18.8647 16.0472 18.6093 14.5025 17.4499 13.8722L15.6444 12.8908C14.8832 12.4769 13.9557 12.5985 13.3607 13.1901ZM7.61637 7.79532L7.34533 8.06482L7.33967 8.07048C7.26408 8.15546 6.44187 9.20136 9.11436 11.8587C11.9068 14.6353 12.9299 13.6181 12.9299 13.6181L9.18455 17.3634C8.18143 16.7762 7.12225 15.9813 6.04523 14.9104C4.97792 13.8491 4.15767 12.8307 3.52812 11.8816L3.52836 11.8814C1.92584 9.46549 1.55901 7.49957 1.49785 6.42339C1.46455 5.83747 1.73914 5.3093 2.14891 4.90185L3.63219 3.427C4.4586 2.60528 5.85184 2.73251 6.57284 3.69562L7.76448 5.28738C8.34701 6.06552 8.28407 7.13141 7.61637 7.79532Z" fill="#525252"/>
</g>
</svg>
