<svg width="25" height="24" viewBox="0 0 25 24" fill="none" xmlns="http://www.w3.org/2000/svg">
<g id="scroll-invoice-down">
<g id="merged">
<path d="M6.625 9.99989C6.625 9.58568 6.96079 9.24989 7.375 9.24989L13.375 9.24989C13.7892 9.24989 14.125 9.58568 14.125 9.99989C14.125 10.4141 13.7892 10.7499 13.375 10.7499L7.375 10.7499C6.96079 10.7499 6.625 10.4141 6.625 9.99989Z" fill="#999999"/>
<path d="M7.625 13.4999C7.625 13.0857 7.96079 12.7499 8.375 12.7499H12.375C12.7892 12.7499 13.125 13.0857 13.125 13.4999C13.125 13.9141 12.7892 14.2499 12.375 14.2499H8.375C7.96079 14.2499 7.625 13.9141 7.625 13.4999Z" fill="#999999"/>
<path fill-rule="evenodd" clip-rule="evenodd" d="M8.76255 22.3223C9.7617 22.8932 10.9883 22.8932 11.9875 22.3223L13.1481 21.6591C13.6317 21.3827 14.2181 21.3531 14.7271 21.5793L16.3127 22.2841C17.6353 22.8719 19.125 21.9037 19.125 20.4564V11.0404L20.3043 11.5711C21.6278 12.1667 23.125 11.1986 23.125 9.74728V4.37988C23.125 2.8611 21.8938 1.62988 20.375 1.62988H5.875C3.52779 1.62988 1.625 3.53267 1.625 5.87988V20.4564C1.625 21.9037 3.1147 22.8719 4.43728 22.2841L6.02292 21.5793C6.53194 21.3531 7.11826 21.3827 7.6019 21.6591L8.76255 22.3223ZM20.9198 10.2032L19.125 9.39557V4.37988C19.125 3.68953 19.6846 3.12988 20.375 3.12988C21.0654 3.12988 21.625 3.68953 21.625 4.37988V9.74728C21.625 10.1101 21.2507 10.3521 20.9198 10.2032ZM5.875 3.12988H17.9249C17.7331 3.50492 17.625 3.92977 17.625 4.37988V20.4564C17.625 20.8183 17.2526 21.0603 16.9219 20.9133L15.3363 20.2086C14.391 19.7885 13.3021 19.8435 12.4039 20.3567L11.2432 21.0199C10.7052 21.3274 10.0448 21.3274 9.50676 21.0199L8.34611 20.3567C7.44792 19.8435 6.35904 19.7885 5.41371 20.2086L3.82807 20.9133C3.49743 21.0603 3.125 20.8183 3.125 20.4564V5.87988C3.125 4.3611 4.35622 3.12988 5.875 3.12988Z" fill="#999999"/>
</g>
</g>
</svg>
