<svg width="33" height="103" viewBox="0 0 33 103" fill="none" xmlns="http://www.w3.org/2000/svg">
<line x1="15.9004" y1="22" x2="15.9004" y2="80.9254" stroke="url(#paint0_linear_13005_24611)" stroke-opacity="0.5" stroke-dasharray="2 2"/>
<path d="M1.40039 13C1.40039 6.37258 6.77297 1 13.4004 1H19.4004C26.0278 1 31.4004 6.37258 31.4004 13V19C31.4004 25.6274 26.0278 31 19.4004 31H13.4004C6.77297 31 1.40039 25.6274 1.40039 19V13Z" fill="white"/>
<path d="M13.4004 1.875H19.4004V0.125H13.4004V1.875ZM30.5254 13V19H32.2754V13H30.5254ZM19.4004 30.125H13.4004V31.875H19.4004V30.125ZM2.27539 19V13H0.525391V19H2.27539ZM13.4004 30.125C7.25622 30.125 2.27539 25.1442 2.27539 19H0.525391C0.525391 26.1107 6.28972 31.875 13.4004 31.875V30.125ZM30.5254 19C30.5254 25.1442 25.5446 30.125 19.4004 30.125V31.875C26.5111 31.875 32.2754 26.1107 32.2754 19H30.5254ZM19.4004 1.875C25.5446 1.875 30.5254 6.85583 30.5254 13H32.2754C32.2754 5.88933 26.5111 0.125 19.4004 0.125V1.875ZM13.4004 0.125C6.28972 0.125 0.525391 5.88933 0.525391 13H2.27539C2.27539 6.85583 7.25622 1.875 13.4004 1.875V0.125Z" fill="#E7E5E4"/>
<path d="M18.6438 13.075H19.3C19.3 12.8622 19.1969 12.6626 19.0232 12.5396L18.6438 13.075ZM17.9875 15.2195C17.9875 15.582 18.2814 15.8758 18.6438 15.8758C19.0062 15.8758 19.3 15.582 19.3 15.2195H17.9875ZM17.9875 13.075V15.2195H19.3V13.075H17.9875ZM19.0232 12.5396L14.1548 9.08956L13.396 10.1604L18.2644 13.6104L19.0232 12.5396Z" fill="black"/>
<path d="M23.1129 12.7582C22.9958 12.0729 22.6097 11.455 22.0301 11.0495L19.4104 9.21679C18.7622 8.76329 17.944 8.62634 17.1834 8.84401L11.5531 10.4554C10.4268 10.7777 9.65039 11.8075 9.65039 12.979V18.7994C9.65039 19.2827 9.78342 19.7488 10.0254 20.1515M23.1504 15.2499V19.0208C23.1504 20.1924 22.374 21.2221 21.2477 21.5445L15.6174 23.1558C14.8568 23.3735 14.0386 23.2365 13.3904 22.783L11.7753 21.6532" stroke="black" stroke-width="1.3125" stroke-linecap="round" stroke-linejoin="round"/>
<path d="M22.7756 11.8748L15.3181 14.0412C14.6809 14.2263 13.9945 14.1207 13.4424 13.7526L9.79541 11.3213" stroke="black" stroke-width="1.3125" stroke-linejoin="round"/>
<path d="M14.5254 13.9165V23.4998" stroke="black" stroke-width="1.3125" stroke-linejoin="round"/>
<path d="M1.40039 84C1.40039 77.3726 6.77297 72 13.4004 72H19.4004C26.0278 72 31.4004 77.3726 31.4004 84V90C31.4004 96.6274 26.0278 102 19.4004 102H13.4004C6.77297 102 1.40039 96.6274 1.40039 90V84Z" fill="white"/>
<path d="M13.4004 72.875H19.4004V71.125H13.4004V72.875ZM30.5254 84V90H32.2754V84H30.5254ZM19.4004 101.125H13.4004V102.875H19.4004V101.125ZM2.27539 90V84H0.525391V90H2.27539ZM13.4004 101.125C7.25622 101.125 2.27539 96.1442 2.27539 90H0.525391C0.525391 97.1107 6.28972 102.875 13.4004 102.875V101.125ZM30.5254 90C30.5254 96.1442 25.5446 101.125 19.4004 101.125V102.875C26.5111 102.875 32.2754 97.1107 32.2754 90H30.5254ZM19.4004 72.875C25.5446 72.875 30.5254 77.8558 30.5254 84H32.2754C32.2754 76.8893 26.5111 71.125 19.4004 71.125V72.875ZM13.4004 71.125C6.28972 71.125 0.525391 76.8893 0.525391 84H2.27539C2.27539 77.8558 7.25622 72.875 13.4004 72.875V71.125Z" fill="#E7E5E4"/>
<path fill-rule="evenodd" clip-rule="evenodd" d="M10.3066 85.875C10.3066 82.5359 12.9624 80.1562 16.4004 80.1562C19.8384 80.1562 22.4941 82.5359 22.4941 85.875C22.4941 88.6051 21.2828 90.5975 19.8867 91.9192C19.1862 92.5824 18.4437 93.0715 17.7964 93.3924C17.1275 93.724 16.626 93.8436 16.4004 93.8436C16.1748 93.8436 15.6733 93.724 15.0043 93.3924C14.3571 93.0715 13.6146 92.5824 12.9141 91.9192C11.518 90.5975 10.3066 88.6051 10.3066 85.875ZM16.4004 78.8438C12.3384 78.8438 8.99414 81.7141 8.99414 85.875C8.99414 89.0338 10.4078 91.3538 12.0117 92.8723C12.8112 93.6292 13.6625 94.1921 14.4214 94.5683C15.1587 94.9338 15.876 95.1561 16.4004 95.1561C16.9248 95.1561 17.6421 94.9338 18.3793 94.5683C19.1383 94.1921 19.9896 93.6292 20.7891 92.8723C22.393 91.3538 23.8066 89.0338 23.8066 85.875C23.8066 81.7141 20.4624 78.8438 16.4004 78.8438ZM14.8066 86.25C14.8066 85.3698 15.5202 84.6562 16.4004 84.6562C17.2806 84.6562 17.9941 85.3698 17.9941 86.25C17.9941 87.1302 17.2806 87.8438 16.4004 87.8438C15.5202 87.8438 14.8066 87.1302 14.8066 86.25ZM16.4004 83.3438C14.7953 83.3438 13.4941 84.6449 13.4941 86.25C13.4941 87.8551 14.7953 89.1562 16.4004 89.1562C18.0055 89.1562 19.3066 87.8551 19.3066 86.25C19.3066 84.6449 18.0055 83.3438 16.4004 83.3438Z" fill="black"/>
<defs>
<linearGradient id="paint0_linear_13005_24611" x1="15.4004" y1="23.5439" x2="15.4004" y2="85.1711" gradientUnits="userSpaceOnUse">
<stop stop-color="#AD0405"/>
<stop offset="1" stop-color="#AD0405" stop-opacity="0"/>
</linearGradient>
</defs>
</svg>
