<svg width="21" height="83" viewBox="0 0 21 83" fill="none" xmlns="http://www.w3.org/2000/svg">
<line x1="10.5" y1="12.0002" x2="10.5" y2="70.9256" stroke="url(#paint0_linear_13218_26339)" stroke-opacity="0.5" stroke-dasharray="2 2"/>
<circle cx="10.5" cy="10.5002" r="9.975" fill="#E80404" stroke="white" stroke-width="1.05"/>
<path fill-rule="evenodd" clip-rule="evenodd" d="M6.5 9.68766C6.5 7.5272 8.20765 5.9585 10.5 5.9585C12.7923 5.9585 14.5 7.5272 14.5 9.68766C14.5 11.5284 13.6869 12.8672 12.7422 13.7617C12.2665 14.212 11.7635 14.5428 11.3302 14.7575C10.8679 14.9867 10.5717 15.0417 10.5 15.0417C10.4284 15.0417 10.1321 14.9867 9.66984 14.7575C9.2365 14.5428 8.73349 14.212 8.25782 13.7617C7.31305 12.8672 6.5 11.5284 6.5 9.68766ZM10.5 4.2085C7.37568 4.2085 4.75 6.43146 4.75 9.68766C4.75 12.1 5.83278 13.8757 7.05468 15.0325C7.66234 15.6078 8.31038 16.0369 8.89266 16.3255C9.446 16.5998 10.03 16.7917 10.5 16.7917C10.97 16.7917 11.554 16.5998 12.1073 16.3255C12.6896 16.0369 13.3377 15.6078 13.9453 15.0325C15.1672 13.8757 16.25 12.1 16.25 9.68766C16.25 6.43146 13.6243 4.2085 10.5 4.2085ZM9.75 9.9585C9.75 9.54428 10.0858 9.2085 10.5 9.2085C10.9142 9.2085 11.25 9.54428 11.25 9.9585C11.25 10.3727 10.9142 10.7085 10.5 10.7085C10.0858 10.7085 9.75 10.3727 9.75 9.9585ZM10.5 7.4585C9.11929 7.4585 8 8.57778 8 9.9585C8 11.3392 9.11929 12.4585 10.5 12.4585C11.8807 12.4585 13 11.3392 13 9.9585C13 8.57778 11.8807 7.4585 10.5 7.4585Z" fill="white"/>
<circle cx="10.5" cy="72.5002" r="9.975" stroke="#E80404" stroke-width="1.05"/>
<defs>
<linearGradient id="paint0_linear_13218_26339" x1="10" y1="13.5441" x2="10" y2="75.1713" gradientUnits="userSpaceOnUse">
<stop stop-color="#AD0405"/>
<stop offset="1" stop-color="#AD0405" stop-opacity="0"/>
</linearGradient>
</defs>
</svg>
