<svg width="24" height="24" viewBox="0 0 24 24" fill="none" xmlns="http://www.w3.org/2000/svg">
<g id="square-layout-11">
<path id="line-4" d="M11.5 18C11.5 16.6193 12.6193 15.5 14 15.5H19C20.3807 15.5 21.5 16.6193 21.5 18V19C21.5 20.3807 20.3807 21.5 19 21.5H14C12.6193 21.5 11.5 20.3807 11.5 19V18Z" stroke="black" stroke-width="1.5"/>
<path id="line-3" d="M2.5 17.5C2.5 16.3954 3.39543 15.5 4.5 15.5H5C6.933 15.5 8.5 17.067 8.5 19V19.5C8.5 20.6046 7.60457 21.5 6.5 21.5H4.5C3.39543 21.5 2.5 20.6046 2.5 19.5V17.5Z" stroke="black" stroke-width="1.5"/>
<path id="line-2" d="M11.5 5.5C11.5 3.84315 12.8431 2.5 14.5 2.5H18.5C20.1569 2.5 21.5 3.84315 21.5 5.5V9.5C21.5 11.1569 20.1569 12.5 18.5 12.5H16.5C13.7386 12.5 11.5 10.2614 11.5 7.5V5.5Z" stroke="black" stroke-width="1.5"/>
<path id="line-1" d="M2.5 4.75C2.5 3.50736 3.50736 2.5 4.75 2.5H6.25C7.49264 2.5 8.5 3.50736 8.5 4.75V10.25C8.5 11.4926 7.49264 12.5 6.25 12.5H4.75C3.50736 12.5 2.5 11.4926 2.5 10.25V4.75Z" stroke="black" stroke-width="1.5"/>
</g>
</svg>
