<svg width="27" height="27" viewBox="0 0 27 27" fill="none" xmlns="http://www.w3.org/2000/svg">
<g id="Star Pro">
<path id="Vector" fill-rule="evenodd" clip-rule="evenodd" d="M9.44856 18.5654L8.95965 25.0954C8.92493 25.5547 9.33319 25.87 9.69778 25.6656C12.2812 24.2184 20.3733 18.9036 24.475 7.22232C24.6632 6.68636 24.1575 6.20304 23.7262 6.50547C21.3035 8.20239 16.0089 11.7082 12.7366 12.3769C12.7366 12.3769 14.8322 10.9208 16.0862 8.68738C16.1463 8.58009 16.1759 8.45833 16.1717 8.33539C16.1674 8.21244 16.1295 8.09302 16.0621 7.99013L11.4882 1.39734C11.2172 1.00699 10.6605 1.16884 10.563 1.66672L9.13886 8.91196L2.45534 14.7453C2.12044 15.0377 2.18876 15.6285 2.57575 15.7848L9.44856 18.5654ZM21.2676 15.9914C20.8443 16.5823 19.9325 17.797 19.0908 18.5396C18.9228 18.688 18.9452 18.9367 19.1378 19.0576L23.5862 21.85C23.8539 22.018 24.2151 21.8186 24.1703 21.5274C23.9631 20.1928 23.3672 17.4106 21.8602 15.95C21.6922 15.7876 21.4021 15.8044 21.2676 15.9914Z" fill="#FBBF24"/>
</g>
</svg>
