<svg width="111" height="111" viewBox="0 0 111 111" fill="none" xmlns="http://www.w3.org/2000/svg">
<g id="Star">
<path id="Star / On" d="M50.5768 15.4333C52.1265 10.6637 58.8741 10.6637 60.4238 15.4332L66.7356 34.8592C67.4287 36.9922 69.4164 38.4364 71.6591 38.4364L92.0848 38.4364C97.0998 38.4364 99.1849 44.8537 95.1277 47.8014L78.603 59.8073C76.7886 61.1256 76.0293 63.4622 76.7224 65.5952L83.0343 85.0212C84.584 89.7907 79.1251 93.7569 75.0679 90.8091L58.5432 78.8032C56.7287 77.485 54.2718 77.485 52.4574 78.8032L35.9327 90.8091C31.8755 93.7569 26.4166 89.7907 27.9663 85.0212L34.2781 65.5952C34.9712 63.4623 34.212 61.1256 32.3975 59.8073L15.8728 47.8014C11.8156 44.8537 13.9008 38.4364 18.9157 38.4364L39.3414 38.4364C41.5841 38.4364 43.5718 36.9922 44.2649 34.8592L50.5768 15.4333Z" fill="#F59E0B"/>
</g>
</svg>
