<svg width="19" height="19" viewBox="0 0 19 19" fill="none" xmlns="http://www.w3.org/2000/svg">
<g id="sun">
<path id="line-9" d="M14.3335 9.5C14.3335 11.9853 12.3188 14 9.8335 14C7.34821 14 5.3335 11.9853 5.3335 9.5C5.3335 7.01472 7.34821 5 9.8335 5C12.3188 5 14.3335 7.01472 14.3335 9.5Z" stroke="white" stroke-width="1.125"/>
<path id="line-8" d="M9.8335 2.75L9.8335 2.375" stroke="white" stroke-width="1.125" stroke-linecap="round"/>
<path id="line-7" d="M9.8335 16.625L9.8335 16.25" stroke="white" stroke-width="1.125" stroke-linecap="round"/>
<path id="line-6" d="M16.5835 9.5L16.9585 9.5" stroke="white" stroke-width="1.125" stroke-linecap="round"/>
<path id="line-5" d="M2.7085 9.5L3.08351 9.50001" stroke="white" stroke-width="1.125" stroke-linecap="round"/>
<path id="line-4" d="M14.6064 4.72806L14.8716 4.46289" stroke="white" stroke-width="1.125" stroke-linecap="round"/>
<path id="line-3" d="M4.79492 14.5376L5.06009 14.2725" stroke="white" stroke-width="1.125" stroke-linecap="round"/>
<path id="line-2" d="M14.6064 14.2725L14.8716 14.5376" stroke="white" stroke-width="1.125" stroke-linecap="round"/>
<path id="line-1" d="M4.79492 4.46191L5.06009 4.7271" stroke="white" stroke-width="1.125" stroke-linecap="round"/>
</g>
</svg>
