<svg width="154" height="230" viewBox="0 0 154 230" fill="none" xmlns="http://www.w3.org/2000/svg">
<path d="M153.776 11.1058C177.195 22.6546 194.269 40.4627 204.361 65.0462C214.714 90.2467 215.565 116.121 206.69 142.341C197.288 170.129 179.229 190.518 153.928 204.608C134.707 215.316 115.708 226.455 96.6156 237.408C86.9116 242.968 77.233 248.626 67.4992 254.151C60.1312 258.337 52.4348 258.614 44.8533 255.681C39.2423 253.511 33.7583 250.955 28.6895 247.608C22.0278 243.211 18.2331 236.941 17.0254 228.928C15.0383 215.734 13.0404 202.551 11.0318 189.378C8.11692 170.229 5.32198 151.053 2.22363 131.94C-0.565015 114.803 -0.300169 97.8032 4.67112 80.8768C10.7851 59.952 21.9487 42.2807 38.1621 27.8627C48.9832 18.2362 61.1875 11.0057 74.7259 6.46766C97.3368 -1.11019 119.898 -1.43065 142.232 6.24802C143.864 6.8096 145.543 7.24847 147.121 7.92429C149.371 8.89496 151.56 10.0367 153.776 11.1058ZM58.0696 86.79C53.6516 96.8689 52.2042 108 53.8975 118.874C57.4415 142.373 61.0335 165.865 64.6735 189.348C65.4252 194.273 65.5669 194.325 69.8662 191.854C89.9205 180.314 109.983 168.789 130.054 157.279C142.792 149.978 151.887 139.595 156.77 125.46C167.206 95.2552 150.314 65.2349 123.909 56.6799C99.8257 48.8952 71.3945 59.7164 58.0696 86.79Z" fill="url(#paint0_linear_14237_5239)"/>
<path d="M64.5712 92.757C64.3149 93.2062 64.1281 93.6917 64.0172 94.1969C63.9373 94.5378 63.9672 94.8953 64.1027 95.2182C64.2381 95.5412 64.4722 95.813 64.7714 95.9949C65.8473 96.7018 66.6119 96.5501 67.3753 95.4546C67.4421 95.3644 67.5012 95.2686 67.5518 95.1684C67.9393 94.3653 68.4568 93.6291 68.8946 92.8544C69.8629 91.1375 70.92 89.4723 72.0617 87.8656C75.1513 83.4505 78.987 79.6081 83.3967 76.5109C88.1254 73.2523 93.4246 70.9115 99.0182 69.6107C99.5938 69.4616 100.154 69.3351 100.719 69.181C101.077 69.0897 101.411 68.9258 101.703 68.6996C102.031 68.4516 102.275 68.1091 102.402 67.7182C102.53 67.3274 102.535 66.9068 102.417 66.5131C102.325 66.1391 102.109 65.8078 101.802 65.5746C101.496 65.3413 101.119 65.2204 100.734 65.2319C100.334 65.2319 99.9351 65.2662 99.5409 65.3346C98.0626 65.5834 96.6051 65.9429 95.1807 66.4102C89.5308 68.1137 84.2426 70.8425 79.5805 74.4603C73.2186 79.4098 68.3877 85.653 64.5712 92.757Z" fill="url(#paint1_linear_14237_5239)"/>
<path d="M107.132 64.4268C106.897 64.2963 106.631 64.2332 106.363 64.2446C106.094 64.2559 105.834 64.3413 105.612 64.4911C105.291 64.6782 105.017 64.9354 104.81 65.2435C104.603 65.5516 104.468 65.9026 104.416 66.2701C104.336 66.6854 104.404 67.1156 104.608 67.4862C104.812 67.8567 105.139 68.1441 105.533 68.2985C105.893 68.4839 106.306 68.5363 106.701 68.4465C107.096 68.3567 107.446 68.1303 107.69 67.8074C107.817 67.6708 107.93 67.5224 108.028 67.3643C108.721 66.2646 108.401 65.0605 107.132 64.4268Z" fill="url(#paint2_linear_14237_5239)"/>
<path d="M90.3971 135.97C104.647 142.847 121.954 136.493 129.055 121.779C136.155 107.064 130.36 89.5619 116.11 82.6856C101.861 75.8094 84.5529 82.1633 77.4525 96.8775C70.352 111.592 76.1476 129.094 90.3971 135.97Z" fill="url(#paint3_linear_14237_5239)"/>
<defs>
<linearGradient id="paint0_linear_14237_5239" x1="45.7678" y1="256.527" x2="131.586" y2="78.687" gradientUnits="userSpaceOnUse">
<stop stop-color="#939587"/>
<stop offset="1" stop-color="#F3F4F6"/>
</linearGradient>
<linearGradient id="paint1_linear_14237_5239" x1="45.7678" y1="256.527" x2="131.586" y2="78.687" gradientUnits="userSpaceOnUse">
<stop stop-color="#939587"/>
<stop offset="1" stop-color="#F3F4F6"/>
</linearGradient>
<linearGradient id="paint2_linear_14237_5239" x1="45.7678" y1="256.527" x2="131.586" y2="78.687" gradientUnits="userSpaceOnUse">
<stop stop-color="#939587"/>
<stop offset="1" stop-color="#F3F4F6"/>
</linearGradient>
<linearGradient id="paint3_linear_14237_5239" x1="45.7678" y1="256.527" x2="131.586" y2="78.687" gradientUnits="userSpaceOnUse">
<stop stop-color="#939587"/>
<stop offset="1" stop-color="#F3F4F6"/>
</linearGradient>
</defs>
</svg>
