<svg width="14" height="14" viewBox="0 0 14 14" fill="none" xmlns="http://www.w3.org/2000/svg">
<g id="truck-2-fast-deliver">
<g id="merged">
<path d="M1.91952 2.99345C1.91952 2.77216 2.09891 2.59277 2.3202 2.59277H3.38867C3.60996 2.59277 3.78935 2.77216 3.78935 2.99345C3.78935 3.21474 3.60996 3.39413 3.38867 3.39413H2.3202C2.09891 3.39413 1.91952 3.21474 1.91952 2.99345Z" fill="black"/>
<path fill-rule="evenodd" clip-rule="evenodd" d="M5.25838 3.12701C5.03709 3.12701 4.8577 3.3064 4.8577 3.52769C4.8577 3.74898 5.03709 3.92837 5.25838 3.92837H7.66244C7.87295 3.92837 8.04586 4.09097 8.06189 4.29714L8.06181 4.29988L8.06168 4.30206C8.06131 4.30755 8.06043 4.31588 8.05846 4.32868L7.65877 6.9267L7.65698 6.93811L7.63808 7.06115C7.60801 7.25662 7.43983 7.40091 7.24206 7.40091H2.16546L2.44167 6.29605C2.49534 6.08137 2.36482 5.86383 2.15013 5.81016C1.93545 5.75649 1.71791 5.88701 1.66424 6.10169L1.17786 8.04723C1.14091 8.195 1.10844 8.38104 1.13299 8.58147C1.23894 9.44619 1.89511 10.1405 2.74078 10.3031C2.8502 10.9306 3.39762 11.4077 4.05647 11.4077C4.70262 11.4077 5.24159 10.9488 5.36534 10.3392H8.6242C8.74795 10.9488 9.28693 11.4077 9.93307 11.4077C10.6178 11.4077 11.1822 10.8924 11.2596 10.2285C12.0426 9.95609 12.6045 9.21157 12.6045 8.33582V7.60776C12.6045 7.19847 12.2727 6.86667 11.8634 6.86667C11.7488 6.86667 11.6458 6.79693 11.6033 6.69056L10.9075 4.95109C10.725 4.49473 10.283 4.19548 9.79144 4.19548H9.143C9.04734 4.19548 8.95247 4.20696 8.86034 4.22887C8.80921 3.61167 8.29261 3.12701 7.66244 3.12701H5.25838ZM4.05647 8.7365C3.52112 8.7365 3.05934 9.05147 2.84633 9.50621C2.36187 9.39274 1.98993 8.9862 1.9284 8.48402C1.92109 8.42432 1.92866 8.34807 1.95529 8.24159L1.96512 8.20226H7.24206C7.83535 8.20226 8.33991 7.7694 8.43012 7.18301L8.45061 7.04981L8.7205 5.33015C8.7508 5.15354 8.93107 4.99684 9.143 4.99684H9.79144C9.95528 4.99684 10.1026 5.09659 10.1635 5.24871L10.8106 6.86667H10.6009C10.3796 6.86667 10.2002 7.04606 10.2002 7.26735C10.2002 7.48863 10.3796 7.66802 10.6009 7.66802H11.7762C11.7852 7.66802 11.7942 7.66772 11.8031 7.66713V8.33582C11.8031 8.82034 11.5165 9.23791 11.1035 9.42816C10.8761 9.01583 10.4372 8.7365 9.93307 8.7365C9.3854 8.7365 8.91471 9.06615 8.70861 9.53785H5.28093C5.07483 9.06615 4.60415 8.7365 4.05647 8.7365ZM9.39884 10.0721C9.39884 9.77704 9.63802 9.53785 9.93307 9.53785C10.2281 9.53785 10.4673 9.77704 10.4673 10.0721C10.4673 10.3671 10.2281 10.6063 9.93307 10.6063C9.63802 10.6063 9.39884 10.3671 9.39884 10.0721ZM4.05647 9.53785C3.76142 9.53785 3.52223 9.77704 3.52223 10.0721C3.52223 10.3671 3.76142 10.6063 4.05647 10.6063C4.35152 10.6063 4.5907 10.3671 4.5907 10.0721C4.5907 9.77704 4.35152 9.53785 4.05647 9.53785Z" fill="black"/>
<path d="M3.52223 5.79819C3.30094 5.79819 3.12155 5.97758 3.12155 6.19887C3.12155 6.42016 3.30094 6.59955 3.52223 6.59955H4.85782C5.07911 6.59955 5.2585 6.42016 5.2585 6.19887C5.2585 5.97758 5.07911 5.79819 4.85782 5.79819H3.52223Z" fill="black"/>
<path d="M1.51884 4.19548C1.29755 4.19548 1.11816 4.37487 1.11816 4.59616C1.11816 4.81745 1.29755 4.99684 1.51884 4.99684H3.92291C4.1442 4.99684 4.32359 4.81745 4.32359 4.59616C4.32359 4.37487 4.1442 4.19548 3.92291 4.19548H1.51884Z" fill="black"/>
</g>
</g>
</svg>
