<svg width="25" height="24" viewBox="0 0 25 24" fill="none" xmlns="http://www.w3.org/2000/svg">
<g id="User">
<path id="Icon" fill-rule="evenodd" clip-rule="evenodd" d="M9.625 5.875C9.625 4.14911 11.0241 2.75 12.75 2.75C14.4759 2.75 15.875 4.14911 15.875 5.875C15.875 7.60089 14.4759 9 12.75 9C11.0241 9 9.625 7.60089 9.625 5.875ZM12.75 1C10.0576 1 7.875 3.18261 7.875 5.875C7.875 8.56739 10.0576 10.75 12.75 10.75C15.4424 10.75 17.625 8.56739 17.625 5.875C17.625 3.18261 15.4424 1 12.75 1ZM9.55 13C6.41578 13 3.875 15.5408 3.875 18.675C3.875 20.9256 5.69944 22.75 7.95 22.75H17.55C19.8006 22.75 21.625 20.9256 21.625 18.675C21.625 15.5408 19.0842 13 15.95 13H9.55ZM5.625 18.675C5.625 16.5073 7.38228 14.75 9.55 14.75H15.95C18.1177 14.75 19.875 16.5073 19.875 18.675C19.875 19.9591 18.8341 21 17.55 21H7.95C6.66594 21 5.625 19.9591 5.625 18.675Z" fill="#999999"/>
</g>
</svg>
