<svg width="21" height="21" viewBox="0 0 21 21" fill="none" xmlns="http://www.w3.org/2000/svg">
<g id="user-list-1">
<g id="filled">
<path d="M14.1499 3.74121C12.3666 3.74121 10.9211 5.18679 10.9211 6.97C10.9211 8.75322 12.3666 10.1988 14.1499 10.1988C15.9331 10.1988 17.3786 8.75322 17.3786 6.97C17.3786 5.18679 15.9331 3.74121 14.1499 3.74121Z" fill="#525252"/>
<path d="M1.44189 6.33297C1.44189 5.98779 1.72172 5.70797 2.06689 5.70797H6.30932C6.6545 5.70797 6.93432 5.98779 6.93432 6.33297C6.93432 6.67815 6.6545 6.95797 6.30932 6.95797H2.06689C1.72172 6.95797 1.44189 6.67815 1.44189 6.33297Z" fill="#525252"/>
<path d="M1.44189 11.333C1.44189 10.9878 1.72172 10.708 2.06689 10.708H6.30932C6.6545 10.708 6.93432 10.9878 6.93432 11.333C6.93432 11.6781 6.6545 11.958 6.30932 11.958H2.06689C1.72172 11.958 1.44189 11.6781 1.44189 11.333Z" fill="#525252"/>
<path d="M2.06689 8.20797C1.72172 8.20797 1.44189 8.48779 1.44189 8.83297C1.44189 9.17815 1.72172 9.45797 2.06689 9.45797H8.73356C9.07874 9.45797 9.35856 9.17815 9.35856 8.83297C9.35856 8.48779 9.07874 8.20797 8.73356 8.20797H2.06689Z" fill="#525252"/>
<path d="M9.79062 12.7202C10.2538 11.9329 11.099 11.4495 12.0125 11.4495H16.2883C17.2017 11.4495 18.0469 11.9329 18.5101 12.7202L18.9409 13.4524C19.2946 14.0536 19.4516 14.7641 19.3029 15.4118C19.1465 16.0935 18.659 16.6497 17.8715 16.8531C15.7913 17.3905 12.5095 17.3905 10.4293 16.8531C9.64173 16.6497 9.15426 16.0935 8.99781 15.4118C8.84914 14.7641 9.00612 14.0536 9.35984 13.4524L9.79062 12.7202Z" fill="#525252"/>
</g>
</g>
</svg>
