<svg width="21" height="21" viewBox="0 0 21 21" fill="none" xmlns="http://www.w3.org/2000/svg">
<g id="user-activity-circle">
<g id="filled">
<path d="M10.4002 2.79199C6.14303 2.79199 2.69189 6.24313 2.69189 10.5003C2.69189 12.541 3.48488 14.3965 4.77951 15.7754L5.23015 15.0094C5.79165 14.0551 6.81627 13.4691 7.92358 13.4691H12.8766C13.9839 13.4691 15.0085 14.0551 15.57 15.0094L16.0208 15.7756C17.3155 14.3966 18.1086 12.5411 18.1086 10.5003C18.1086 9.72052 17.993 8.96884 17.7784 8.2609C17.6783 7.93056 17.8649 7.58161 18.1952 7.48149C18.5256 7.38136 18.8745 7.56799 18.9747 7.89833C19.2245 8.72254 19.3586 9.59634 19.3586 10.5003C19.3586 13.0378 18.3036 15.3288 16.6083 16.9588C16.5971 16.9783 16.5826 16.9963 16.5648 17.0118L16.2978 17.2454C14.7227 18.6231 12.6592 19.4587 10.4022 19.4587H10.4002C8.08666 19.4587 5.97794 18.5816 4.38838 17.1419L4.23762 17.0099C4.22268 16.9968 4.21001 16.982 4.19969 16.966C2.50001 15.3356 1.44189 13.0415 1.44189 10.5003C1.44189 5.55277 5.45268 1.54199 10.4002 1.54199C11.3355 1.54199 12.2384 1.68553 13.0875 1.95221C13.4168 2.05565 13.5999 2.40646 13.4965 2.73577C13.3931 3.06509 13.0423 3.24821 12.7129 3.14477C11.9836 2.91572 11.207 2.79199 10.4002 2.79199Z" fill="#525252"/>
<path d="M16.2336 2.37533C14.9679 2.37533 13.9419 3.40134 13.9419 4.66699C13.9419 5.93264 14.9679 6.95866 16.2336 6.95866C17.4992 6.95866 18.5252 5.93264 18.5252 4.66699C18.5252 3.40134 17.4992 2.37533 16.2336 2.37533Z" fill="#525252"/>
<path d="M10.4002 5.29199C8.44422 5.29199 6.85856 6.87765 6.85856 8.83366C6.85856 10.7897 8.44422 12.3753 10.4002 12.3753C12.3562 12.3753 13.9419 10.7897 13.9419 8.83366C13.9419 6.87765 12.3562 5.29199 10.4002 5.29199Z" fill="#525252"/>
</g>
</g>
</svg>
