<svg width="24" height="24" viewBox="0 0 24 24" fill="none" xmlns="http://www.w3.org/2000/svg">
<g id="wallet-5">
<path id="merged" fill-rule="evenodd" clip-rule="evenodd" d="M18.7459 5.8123L17.2653 3.35926C16.129 1.47665 13.6817 0.871654 11.7991 2.00796L11.7961 2.00976L5.64043 5.76422C3.49966 5.9362 1.75 7.62917 1.75 9.78108V18.7186C1.75 20.9899 3.69912 22.7499 6 22.7499H18C20.3009 22.7499 22.25 20.9899 22.25 18.7186V9.78108C22.25 7.76017 20.7069 6.14403 18.7459 5.8123ZM15.9811 4.13438C15.2731 2.96148 13.7487 2.58424 12.5756 3.29133L8.54472 5.74983H16.9561L15.9811 4.13438ZM6 7.24983C4.43489 7.24983 3.25 8.42797 3.25 9.78108V18.7186C3.25 20.0717 4.43489 21.2499 6 21.2499H18C19.5651 21.2499 20.75 20.0717 20.75 18.7186V17.496C18.9819 17.4139 17.5 16.0338 17.5 14.2498C17.5 12.4658 18.9819 11.0857 20.75 11.0037V9.78108C20.75 8.42797 19.5651 7.24983 18 7.24983H6ZM19 14.2498C19 13.3752 19.7311 12.5845 20.75 12.5062V15.9935C19.7311 15.9151 19 15.1245 19 14.2498Z" fill="black"/>
</g>
</svg>
