<svg width="45" height="44" viewBox="0 0 45 44" fill="none" xmlns="http://www.w3.org/2000/svg">
<path d="M22.0603 40.0821C12.3609 39.7762 4.5918 31.8171 4.5918 22.0434C4.5918 12.0759 12.6721 3.99561 22.6396 3.99561C25.4635 3.99561 28.1358 4.64414 30.5159 5.80039M40.6779 21.4503C40.5407 17.2034 38.9364 13.3273 36.3552 10.3123" stroke="white" stroke-width="3.15837" stroke-linecap="round"/>
<path d="M23.0908 14.8242L23.0908 22.9457" stroke="white" stroke-width="3.15837" stroke-linecap="round"/>
<path d="M15.8721 26.5554L23.0912 22.9459" stroke="white" stroke-width="3.15837" stroke-linecap="round"/>
<path d="M39.9951 31.707L33.3148 38.3873C33.1288 38.5732 32.8863 38.6919 32.6254 38.7245L28.96 39.1827C28.7132 39.2135 28.4661 39.1287 28.2902 38.9529C28.1144 38.777 28.0296 38.5298 28.0604 38.2831L28.5186 34.6177C28.5512 34.3568 28.6699 34.1143 28.8558 33.9283L35.5361 27.248C36.4596 26.3245 37.9568 26.3245 38.8803 27.248" stroke="white" stroke-width="3.15837" stroke-linecap="round" stroke-linejoin="round"/>
</svg>
